; NON-PLATED HOLES START AT T1
; THROUGH (PLATED) HOLES START AT T100
M48
INCH
T100C0.038000
T101C0.038189
%
T100
X001306Y020772
X010306Y016772
X001306Y012772
X010306Y008772
X001306Y017772
X001306Y009772
X010306Y014772
X001306Y010772
X010306Y006772
X010306Y019772
X001306Y015772
X010306Y020772
X018306Y020772
X016306Y020772
X001306Y007772
X010306Y012772
X019306Y020772
X017306Y020772
X015306Y020772
X001306Y021772
X010306Y017772
X001306Y013772
X010306Y009772
X001306Y018772
X010306Y010772
X020306Y020772
X010306Y015772
X001306Y011772
X010306Y007772
X001306Y016772
X010306Y021772
X001306Y008772
X010306Y013772
X010306Y018772
X001306Y014772
X001306Y006772
X001306Y019772
X010306Y011772
T101
X019306Y006772
X019306Y003772
X016306Y006772
X015306Y006772
X016306Y003772
X013306Y006772
X015306Y003772
X013306Y003772
X018306Y006772
X017306Y006772
X020306Y006772
X018306Y003772
X017306Y003772
X020306Y003772
X014306Y006772
X014306Y003772
T00
M30
