G04 MADE WITH FRITZING*
G04 WWW.FRITZING.ORG*
G04 DOUBLE SIDED*
G04 HOLES PLATED*
G04 CONTOUR ON CENTER OF CONTOUR VECTOR*
%ASAXBY*%
%FSLAX23Y23*%
%MOIN*%
%OFA0B0*%
%SFA1.0B1.0*%
%ADD10C,0.078000*%
%ADD11C,0.058189*%
%ADD12C,0.024000*%
%ADD13R,0.001000X0.001000*%
%LNCOPPER1*%
G90*
G70*
G54D10*
X1531Y2077D03*
X1631Y2077D03*
X1731Y2077D03*
X1831Y2077D03*
X1931Y2077D03*
X2031Y2077D03*
G54D11*
X1331Y377D03*
X1431Y377D03*
X1931Y377D03*
X2031Y377D03*
X1531Y377D03*
X1631Y377D03*
X1831Y377D03*
X1731Y377D03*
X2031Y677D03*
X1931Y677D03*
X1831Y677D03*
X1731Y677D03*
X1631Y677D03*
X1531Y677D03*
X1431Y677D03*
X1331Y677D03*
X1331Y377D03*
X1431Y377D03*
X1931Y377D03*
X2031Y377D03*
X1531Y377D03*
X1631Y377D03*
X1831Y377D03*
X1731Y377D03*
X2031Y677D03*
X1931Y677D03*
X1831Y677D03*
X1731Y677D03*
X1631Y677D03*
X1531Y677D03*
X1431Y677D03*
X1331Y677D03*
G54D10*
X1031Y2177D03*
X1031Y2077D03*
X1031Y1977D03*
X1031Y1877D03*
X1031Y1777D03*
X1031Y1677D03*
X1031Y1577D03*
X1031Y1477D03*
X1031Y1377D03*
X1031Y1277D03*
X1031Y1177D03*
X1031Y1077D03*
X1031Y977D03*
X1031Y877D03*
X1031Y777D03*
X1031Y677D03*
X131Y2177D03*
X131Y2077D03*
X131Y1977D03*
X131Y1877D03*
X131Y1777D03*
X131Y1677D03*
X131Y1577D03*
X131Y1477D03*
X131Y1377D03*
X131Y1277D03*
X131Y1177D03*
X131Y1077D03*
X131Y977D03*
X131Y877D03*
X131Y777D03*
X131Y677D03*
G54D12*
X1730Y278D02*
X1130Y278D01*
D02*
X1130Y278D02*
X1130Y1777D01*
D02*
X1130Y1777D02*
X1061Y1777D01*
D02*
X1731Y347D02*
X1730Y278D01*
D02*
X1932Y176D02*
X830Y176D01*
D02*
X830Y176D02*
X830Y1077D01*
D02*
X830Y1077D02*
X1001Y1077D01*
D02*
X1931Y347D02*
X1932Y176D01*
D02*
X1529Y578D02*
X1229Y578D01*
D02*
X1229Y578D02*
X1232Y2076D01*
D02*
X1232Y2076D02*
X1061Y2077D01*
D02*
X1530Y407D02*
X1529Y578D01*
G54D13*
X1324Y736D02*
X1336Y736D01*
X1424Y736D02*
X1436Y736D01*
X1524Y736D02*
X1536Y736D01*
X1624Y736D02*
X1635Y736D01*
X1724Y736D02*
X1735Y736D01*
X1824Y736D02*
X1835Y736D01*
X1924Y736D02*
X1935Y736D01*
X2024Y736D02*
X2035Y736D01*
X1321Y735D02*
X1339Y735D01*
X1421Y735D02*
X1439Y735D01*
X1520Y735D02*
X1539Y735D01*
X1620Y735D02*
X1639Y735D01*
X1720Y735D02*
X1739Y735D01*
X1820Y735D02*
X1839Y735D01*
X1920Y735D02*
X1939Y735D01*
X2020Y735D02*
X2039Y735D01*
X1318Y734D02*
X1341Y734D01*
X1418Y734D02*
X1441Y734D01*
X1518Y734D02*
X1541Y734D01*
X1618Y734D02*
X1641Y734D01*
X1718Y734D02*
X1741Y734D01*
X1818Y734D02*
X1841Y734D01*
X1918Y734D02*
X1941Y734D01*
X2018Y734D02*
X2041Y734D01*
X1316Y733D02*
X1343Y733D01*
X1416Y733D02*
X1443Y733D01*
X1516Y733D02*
X1543Y733D01*
X1616Y733D02*
X1643Y733D01*
X1716Y733D02*
X1743Y733D01*
X1816Y733D02*
X1843Y733D01*
X1916Y733D02*
X1943Y733D01*
X2016Y733D02*
X2043Y733D01*
X1314Y732D02*
X1345Y732D01*
X1414Y732D02*
X1445Y732D01*
X1514Y732D02*
X1545Y732D01*
X1614Y732D02*
X1645Y732D01*
X1714Y732D02*
X1745Y732D01*
X1814Y732D02*
X1845Y732D01*
X1914Y732D02*
X1945Y732D01*
X2014Y732D02*
X2045Y732D01*
X1313Y731D02*
X1347Y731D01*
X1413Y731D02*
X1447Y731D01*
X1513Y731D02*
X1546Y731D01*
X1613Y731D02*
X1646Y731D01*
X1713Y731D02*
X1746Y731D01*
X1813Y731D02*
X1846Y731D01*
X1913Y731D02*
X1946Y731D01*
X2013Y731D02*
X2046Y731D01*
X1312Y730D02*
X1348Y730D01*
X1412Y730D02*
X1448Y730D01*
X1512Y730D02*
X1548Y730D01*
X1612Y730D02*
X1648Y730D01*
X1712Y730D02*
X1748Y730D01*
X1812Y730D02*
X1848Y730D01*
X1912Y730D02*
X1948Y730D01*
X2012Y730D02*
X2048Y730D01*
X1311Y729D02*
X1349Y729D01*
X1411Y729D02*
X1449Y729D01*
X1511Y729D02*
X1549Y729D01*
X1611Y729D02*
X1649Y729D01*
X1710Y729D02*
X1749Y729D01*
X1810Y729D02*
X1849Y729D01*
X1910Y729D02*
X1949Y729D01*
X2010Y729D02*
X2049Y729D01*
X1310Y728D02*
X1350Y728D01*
X1410Y728D02*
X1450Y728D01*
X1509Y728D02*
X1550Y728D01*
X1609Y728D02*
X1650Y728D01*
X1709Y728D02*
X1750Y728D01*
X1809Y728D02*
X1850Y728D01*
X1909Y728D02*
X1950Y728D01*
X2009Y728D02*
X2050Y728D01*
X1309Y727D02*
X1351Y727D01*
X1409Y727D02*
X1451Y727D01*
X1509Y727D02*
X1551Y727D01*
X1609Y727D02*
X1651Y727D01*
X1709Y727D02*
X1751Y727D01*
X1808Y727D02*
X1851Y727D01*
X1908Y727D02*
X1951Y727D01*
X2008Y727D02*
X2051Y727D01*
X1308Y726D02*
X1352Y726D01*
X1408Y726D02*
X1452Y726D01*
X1508Y726D02*
X1552Y726D01*
X1608Y726D02*
X1652Y726D01*
X1708Y726D02*
X1752Y726D01*
X1808Y726D02*
X1852Y726D01*
X1908Y726D02*
X1952Y726D01*
X2008Y726D02*
X2052Y726D01*
X1307Y725D02*
X1353Y725D01*
X1407Y725D02*
X1453Y725D01*
X1507Y725D02*
X1552Y725D01*
X1607Y725D02*
X1652Y725D01*
X1707Y725D02*
X1752Y725D01*
X1807Y725D02*
X1852Y725D01*
X1907Y725D02*
X1952Y725D01*
X2007Y725D02*
X2052Y725D01*
X1306Y724D02*
X1353Y724D01*
X1406Y724D02*
X1453Y724D01*
X1506Y724D02*
X1553Y724D01*
X1606Y724D02*
X1653Y724D01*
X1706Y724D02*
X1753Y724D01*
X1806Y724D02*
X1853Y724D01*
X1906Y724D02*
X1953Y724D01*
X2006Y724D02*
X2053Y724D01*
X1306Y723D02*
X1354Y723D01*
X1406Y723D02*
X1454Y723D01*
X1506Y723D02*
X1554Y723D01*
X1606Y723D02*
X1654Y723D01*
X1705Y723D02*
X1754Y723D01*
X1805Y723D02*
X1854Y723D01*
X1905Y723D02*
X1954Y723D01*
X2005Y723D02*
X2054Y723D01*
X1305Y722D02*
X1355Y722D01*
X1405Y722D02*
X1455Y722D01*
X1505Y722D02*
X1554Y722D01*
X1605Y722D02*
X1654Y722D01*
X1705Y722D02*
X1754Y722D01*
X1805Y722D02*
X1854Y722D01*
X1905Y722D02*
X1954Y722D01*
X2005Y722D02*
X2054Y722D01*
X1304Y721D02*
X1355Y721D01*
X1404Y721D02*
X1455Y721D01*
X1504Y721D02*
X1555Y721D01*
X1604Y721D02*
X1655Y721D01*
X1704Y721D02*
X1755Y721D01*
X1804Y721D02*
X1855Y721D01*
X1904Y721D02*
X1955Y721D01*
X2004Y721D02*
X2055Y721D01*
X1304Y720D02*
X1356Y720D01*
X1404Y720D02*
X1456Y720D01*
X1504Y720D02*
X1556Y720D01*
X1604Y720D02*
X1655Y720D01*
X1704Y720D02*
X1755Y720D01*
X1804Y720D02*
X1855Y720D01*
X1904Y720D02*
X1955Y720D01*
X2004Y720D02*
X2055Y720D01*
X1304Y719D02*
X1356Y719D01*
X1403Y719D02*
X1456Y719D01*
X1503Y719D02*
X1556Y719D01*
X1603Y719D02*
X1656Y719D01*
X1703Y719D02*
X1756Y719D01*
X1803Y719D02*
X1856Y719D01*
X1903Y719D02*
X1956Y719D01*
X2003Y719D02*
X2056Y719D01*
X1303Y718D02*
X1356Y718D01*
X1403Y718D02*
X1456Y718D01*
X1503Y718D02*
X1556Y718D01*
X1603Y718D02*
X1656Y718D01*
X1703Y718D02*
X1756Y718D01*
X1803Y718D02*
X1856Y718D01*
X1903Y718D02*
X1956Y718D01*
X2003Y718D02*
X2056Y718D01*
X1303Y717D02*
X1357Y717D01*
X1403Y717D02*
X1457Y717D01*
X1503Y717D02*
X1557Y717D01*
X1603Y717D02*
X1657Y717D01*
X1703Y717D02*
X1757Y717D01*
X1803Y717D02*
X1857Y717D01*
X1903Y717D02*
X1957Y717D01*
X2003Y717D02*
X2057Y717D01*
X1302Y716D02*
X1357Y716D01*
X1402Y716D02*
X1457Y716D01*
X1502Y716D02*
X1557Y716D01*
X1602Y716D02*
X1657Y716D01*
X1702Y716D02*
X1757Y716D01*
X1802Y716D02*
X1857Y716D01*
X1902Y716D02*
X1957Y716D01*
X2002Y716D02*
X2057Y716D01*
X1302Y715D02*
X1357Y715D01*
X1402Y715D02*
X1457Y715D01*
X1502Y715D02*
X1557Y715D01*
X1602Y715D02*
X1657Y715D01*
X1702Y715D02*
X1757Y715D01*
X1802Y715D02*
X1857Y715D01*
X1902Y715D02*
X1957Y715D01*
X2002Y715D02*
X2057Y715D01*
X1302Y714D02*
X1358Y714D01*
X1402Y714D02*
X1458Y714D01*
X1502Y714D02*
X1558Y714D01*
X1602Y714D02*
X1658Y714D01*
X1702Y714D02*
X1758Y714D01*
X1802Y714D02*
X1857Y714D01*
X1902Y714D02*
X1957Y714D01*
X2002Y714D02*
X2057Y714D01*
X1302Y713D02*
X1358Y713D01*
X1402Y713D02*
X1458Y713D01*
X1502Y713D02*
X1558Y713D01*
X1602Y713D02*
X1658Y713D01*
X1702Y713D02*
X1758Y713D01*
X1802Y713D02*
X1858Y713D01*
X1902Y713D02*
X1958Y713D01*
X2001Y713D02*
X2058Y713D01*
X1302Y712D02*
X1358Y712D01*
X1402Y712D02*
X1458Y712D01*
X1501Y712D02*
X1558Y712D01*
X1601Y712D02*
X1658Y712D01*
X1701Y712D02*
X1758Y712D01*
X1801Y712D02*
X1858Y712D01*
X1901Y712D02*
X1958Y712D01*
X2001Y712D02*
X2058Y712D01*
X1301Y711D02*
X1358Y711D01*
X1401Y711D02*
X1458Y711D01*
X1501Y711D02*
X1558Y711D01*
X1601Y711D02*
X1658Y711D01*
X1701Y711D02*
X1758Y711D01*
X1801Y711D02*
X1858Y711D01*
X1901Y711D02*
X1958Y711D01*
X2001Y711D02*
X2058Y711D01*
X1301Y710D02*
X1358Y710D01*
X1401Y710D02*
X1458Y710D01*
X1501Y710D02*
X1558Y710D01*
X1601Y710D02*
X1658Y710D01*
X1701Y710D02*
X1758Y710D01*
X1801Y710D02*
X1858Y710D01*
X1901Y710D02*
X1958Y710D01*
X2001Y710D02*
X2058Y710D01*
X1301Y709D02*
X1358Y709D01*
X1401Y709D02*
X1458Y709D01*
X1501Y709D02*
X1558Y709D01*
X1601Y709D02*
X1658Y709D01*
X1701Y709D02*
X1758Y709D01*
X1801Y709D02*
X1858Y709D01*
X1901Y709D02*
X1958Y709D01*
X2001Y709D02*
X2058Y709D01*
X1301Y708D02*
X1358Y708D01*
X1401Y708D02*
X1458Y708D01*
X1501Y708D02*
X1558Y708D01*
X1601Y708D02*
X1658Y708D01*
X1701Y708D02*
X1758Y708D01*
X1801Y708D02*
X1858Y708D01*
X1901Y708D02*
X1958Y708D01*
X2001Y708D02*
X2058Y708D01*
X1301Y707D02*
X1358Y707D01*
X1401Y707D02*
X1458Y707D01*
X1501Y707D02*
X1558Y707D01*
X1601Y707D02*
X1658Y707D01*
X1701Y707D02*
X1758Y707D01*
X1801Y707D02*
X1858Y707D01*
X1901Y707D02*
X1958Y707D01*
X2001Y707D02*
X2058Y707D01*
X1301Y706D02*
X1358Y706D01*
X1401Y706D02*
X1458Y706D01*
X1501Y706D02*
X1558Y706D01*
X1601Y706D02*
X1658Y706D01*
X1701Y706D02*
X1758Y706D01*
X1801Y706D02*
X1858Y706D01*
X1901Y706D02*
X1958Y706D01*
X2001Y706D02*
X2058Y706D01*
X1301Y705D02*
X1358Y705D01*
X1401Y705D02*
X1458Y705D01*
X1501Y705D02*
X1558Y705D01*
X1601Y705D02*
X1658Y705D01*
X1701Y705D02*
X1758Y705D01*
X1801Y705D02*
X1858Y705D01*
X1901Y705D02*
X1958Y705D01*
X2001Y705D02*
X2058Y705D01*
X1301Y704D02*
X1358Y704D01*
X1401Y704D02*
X1458Y704D01*
X1501Y704D02*
X1558Y704D01*
X1601Y704D02*
X1658Y704D01*
X1701Y704D02*
X1758Y704D01*
X1801Y704D02*
X1858Y704D01*
X1901Y704D02*
X1958Y704D01*
X2001Y704D02*
X2058Y704D01*
X1301Y703D02*
X1358Y703D01*
X1401Y703D02*
X1458Y703D01*
X1501Y703D02*
X1558Y703D01*
X1601Y703D02*
X1658Y703D01*
X1701Y703D02*
X1758Y703D01*
X1801Y703D02*
X1858Y703D01*
X1901Y703D02*
X1958Y703D01*
X2001Y703D02*
X2058Y703D01*
X1301Y702D02*
X1358Y702D01*
X1401Y702D02*
X1458Y702D01*
X1501Y702D02*
X1558Y702D01*
X1601Y702D02*
X1658Y702D01*
X1701Y702D02*
X1758Y702D01*
X1801Y702D02*
X1858Y702D01*
X1901Y702D02*
X1958Y702D01*
X2001Y702D02*
X2058Y702D01*
X1301Y701D02*
X1358Y701D01*
X1401Y701D02*
X1458Y701D01*
X1501Y701D02*
X1558Y701D01*
X1601Y701D02*
X1658Y701D01*
X1701Y701D02*
X1758Y701D01*
X1801Y701D02*
X1858Y701D01*
X1901Y701D02*
X1958Y701D01*
X2001Y701D02*
X2058Y701D01*
X1301Y700D02*
X1358Y700D01*
X1401Y700D02*
X1458Y700D01*
X1501Y700D02*
X1558Y700D01*
X1601Y700D02*
X1658Y700D01*
X1701Y700D02*
X1758Y700D01*
X1801Y700D02*
X1858Y700D01*
X1901Y700D02*
X1958Y700D01*
X2001Y700D02*
X2058Y700D01*
X1301Y699D02*
X1358Y699D01*
X1401Y699D02*
X1458Y699D01*
X1501Y699D02*
X1558Y699D01*
X1601Y699D02*
X1658Y699D01*
X1701Y699D02*
X1758Y699D01*
X1801Y699D02*
X1858Y699D01*
X1901Y699D02*
X1958Y699D01*
X2001Y699D02*
X2058Y699D01*
X1301Y698D02*
X1358Y698D01*
X1401Y698D02*
X1458Y698D01*
X1501Y698D02*
X1558Y698D01*
X1601Y698D02*
X1658Y698D01*
X1701Y698D02*
X1758Y698D01*
X1801Y698D02*
X1858Y698D01*
X1901Y698D02*
X1958Y698D01*
X2001Y698D02*
X2058Y698D01*
X1301Y697D02*
X1325Y697D01*
X1335Y697D02*
X1358Y697D01*
X1401Y697D02*
X1425Y697D01*
X1435Y697D02*
X1458Y697D01*
X1501Y697D02*
X1525Y697D01*
X1535Y697D02*
X1558Y697D01*
X1601Y697D02*
X1625Y697D01*
X1635Y697D02*
X1658Y697D01*
X1701Y697D02*
X1725Y697D01*
X1735Y697D02*
X1758Y697D01*
X1801Y697D02*
X1825Y697D01*
X1835Y697D02*
X1858Y697D01*
X1901Y697D02*
X1924Y697D01*
X1935Y697D02*
X1958Y697D01*
X2001Y697D02*
X2024Y697D01*
X2035Y697D02*
X2058Y697D01*
X1301Y696D02*
X1322Y696D01*
X1338Y696D02*
X1358Y696D01*
X1401Y696D02*
X1422Y696D01*
X1438Y696D02*
X1458Y696D01*
X1501Y696D02*
X1522Y696D01*
X1538Y696D02*
X1558Y696D01*
X1601Y696D02*
X1622Y696D01*
X1638Y696D02*
X1658Y696D01*
X1701Y696D02*
X1722Y696D01*
X1738Y696D02*
X1758Y696D01*
X1801Y696D02*
X1821Y696D01*
X1838Y696D02*
X1858Y696D01*
X1901Y696D02*
X1921Y696D01*
X1938Y696D02*
X1958Y696D01*
X2001Y696D02*
X2021Y696D01*
X2038Y696D02*
X2058Y696D01*
X1301Y695D02*
X1320Y695D01*
X1340Y695D02*
X1358Y695D01*
X1401Y695D02*
X1420Y695D01*
X1440Y695D02*
X1458Y695D01*
X1501Y695D02*
X1520Y695D01*
X1540Y695D02*
X1558Y695D01*
X1601Y695D02*
X1620Y695D01*
X1640Y695D02*
X1658Y695D01*
X1701Y695D02*
X1720Y695D01*
X1740Y695D02*
X1758Y695D01*
X1801Y695D02*
X1820Y695D01*
X1840Y695D02*
X1858Y695D01*
X1901Y695D02*
X1920Y695D01*
X1940Y695D02*
X1958Y695D01*
X2001Y695D02*
X2020Y695D01*
X2040Y695D02*
X2058Y695D01*
X1301Y694D02*
X1318Y694D01*
X1341Y694D02*
X1358Y694D01*
X1401Y694D02*
X1418Y694D01*
X1441Y694D02*
X1458Y694D01*
X1501Y694D02*
X1518Y694D01*
X1541Y694D02*
X1558Y694D01*
X1601Y694D02*
X1618Y694D01*
X1641Y694D02*
X1658Y694D01*
X1701Y694D02*
X1718Y694D01*
X1741Y694D02*
X1758Y694D01*
X1801Y694D02*
X1818Y694D01*
X1841Y694D02*
X1858Y694D01*
X1901Y694D02*
X1918Y694D01*
X1941Y694D02*
X1958Y694D01*
X2001Y694D02*
X2018Y694D01*
X2041Y694D02*
X2058Y694D01*
X1301Y693D02*
X1317Y693D01*
X1343Y693D02*
X1358Y693D01*
X1401Y693D02*
X1417Y693D01*
X1443Y693D02*
X1458Y693D01*
X1501Y693D02*
X1517Y693D01*
X1543Y693D02*
X1558Y693D01*
X1601Y693D02*
X1617Y693D01*
X1643Y693D02*
X1658Y693D01*
X1701Y693D02*
X1717Y693D01*
X1742Y693D02*
X1758Y693D01*
X1801Y693D02*
X1817Y693D01*
X1842Y693D02*
X1858Y693D01*
X1901Y693D02*
X1917Y693D01*
X1942Y693D02*
X1958Y693D01*
X2001Y693D02*
X2017Y693D01*
X2042Y693D02*
X2058Y693D01*
X1301Y692D02*
X1316Y692D01*
X1344Y692D02*
X1358Y692D01*
X1401Y692D02*
X1416Y692D01*
X1444Y692D02*
X1458Y692D01*
X1501Y692D02*
X1516Y692D01*
X1544Y692D02*
X1558Y692D01*
X1601Y692D02*
X1616Y692D01*
X1644Y692D02*
X1658Y692D01*
X1701Y692D02*
X1716Y692D01*
X1744Y692D02*
X1758Y692D01*
X1801Y692D02*
X1816Y692D01*
X1844Y692D02*
X1858Y692D01*
X1901Y692D02*
X1916Y692D01*
X1944Y692D02*
X1958Y692D01*
X2001Y692D02*
X2016Y692D01*
X2044Y692D02*
X2058Y692D01*
X1301Y691D02*
X1315Y691D01*
X1345Y691D02*
X1358Y691D01*
X1401Y691D02*
X1415Y691D01*
X1445Y691D02*
X1458Y691D01*
X1501Y691D02*
X1515Y691D01*
X1545Y691D02*
X1558Y691D01*
X1601Y691D02*
X1615Y691D01*
X1645Y691D02*
X1658Y691D01*
X1701Y691D02*
X1715Y691D01*
X1744Y691D02*
X1758Y691D01*
X1801Y691D02*
X1815Y691D01*
X1844Y691D02*
X1858Y691D01*
X1901Y691D02*
X1915Y691D01*
X1944Y691D02*
X1958Y691D01*
X2001Y691D02*
X2015Y691D01*
X2044Y691D02*
X2058Y691D01*
X1301Y690D02*
X1314Y690D01*
X1345Y690D02*
X1358Y690D01*
X1401Y690D02*
X1414Y690D01*
X1445Y690D02*
X1458Y690D01*
X1501Y690D02*
X1514Y690D01*
X1545Y690D02*
X1558Y690D01*
X1601Y690D02*
X1614Y690D01*
X1645Y690D02*
X1658Y690D01*
X1701Y690D02*
X1714Y690D01*
X1745Y690D02*
X1758Y690D01*
X1801Y690D02*
X1814Y690D01*
X1845Y690D02*
X1858Y690D01*
X1901Y690D02*
X1914Y690D01*
X1945Y690D02*
X1958Y690D01*
X2001Y690D02*
X2014Y690D01*
X2045Y690D02*
X2058Y690D01*
X1301Y689D02*
X1313Y689D01*
X1346Y689D02*
X1358Y689D01*
X1401Y689D02*
X1413Y689D01*
X1446Y689D02*
X1458Y689D01*
X1501Y689D02*
X1513Y689D01*
X1546Y689D02*
X1558Y689D01*
X1601Y689D02*
X1613Y689D01*
X1646Y689D02*
X1658Y689D01*
X1701Y689D02*
X1713Y689D01*
X1746Y689D02*
X1758Y689D01*
X1801Y689D02*
X1813Y689D01*
X1846Y689D02*
X1858Y689D01*
X1901Y689D02*
X1913Y689D01*
X1946Y689D02*
X1958Y689D01*
X2001Y689D02*
X2013Y689D01*
X2046Y689D02*
X2058Y689D01*
X1301Y688D02*
X1313Y688D01*
X1347Y688D02*
X1358Y688D01*
X1401Y688D02*
X1413Y688D01*
X1447Y688D02*
X1458Y688D01*
X1501Y688D02*
X1513Y688D01*
X1547Y688D02*
X1558Y688D01*
X1601Y688D02*
X1613Y688D01*
X1647Y688D02*
X1658Y688D01*
X1701Y688D02*
X1713Y688D01*
X1747Y688D02*
X1758Y688D01*
X1801Y688D02*
X1813Y688D01*
X1847Y688D02*
X1858Y688D01*
X1901Y688D02*
X1913Y688D01*
X1947Y688D02*
X1958Y688D01*
X2001Y688D02*
X2013Y688D01*
X2047Y688D02*
X2058Y688D01*
X1301Y687D02*
X1312Y687D01*
X1347Y687D02*
X1358Y687D01*
X1401Y687D02*
X1412Y687D01*
X1447Y687D02*
X1458Y687D01*
X1501Y687D02*
X1512Y687D01*
X1547Y687D02*
X1558Y687D01*
X1601Y687D02*
X1612Y687D01*
X1647Y687D02*
X1658Y687D01*
X1701Y687D02*
X1712Y687D01*
X1747Y687D02*
X1758Y687D01*
X1801Y687D02*
X1812Y687D01*
X1847Y687D02*
X1858Y687D01*
X1901Y687D02*
X1912Y687D01*
X1947Y687D02*
X1958Y687D01*
X2001Y687D02*
X2012Y687D01*
X2047Y687D02*
X2058Y687D01*
X1301Y686D02*
X1312Y686D01*
X1348Y686D02*
X1358Y686D01*
X1401Y686D02*
X1412Y686D01*
X1448Y686D02*
X1458Y686D01*
X1501Y686D02*
X1512Y686D01*
X1548Y686D02*
X1558Y686D01*
X1601Y686D02*
X1612Y686D01*
X1648Y686D02*
X1658Y686D01*
X1701Y686D02*
X1712Y686D01*
X1748Y686D02*
X1758Y686D01*
X1801Y686D02*
X1812Y686D01*
X1848Y686D02*
X1858Y686D01*
X1901Y686D02*
X1912Y686D01*
X1948Y686D02*
X1958Y686D01*
X2001Y686D02*
X2012Y686D01*
X2048Y686D02*
X2058Y686D01*
X1301Y685D02*
X1311Y685D01*
X1348Y685D02*
X1358Y685D01*
X1401Y685D02*
X1411Y685D01*
X1448Y685D02*
X1458Y685D01*
X1501Y685D02*
X1511Y685D01*
X1548Y685D02*
X1558Y685D01*
X1601Y685D02*
X1611Y685D01*
X1648Y685D02*
X1658Y685D01*
X1701Y685D02*
X1711Y685D01*
X1748Y685D02*
X1758Y685D01*
X1801Y685D02*
X1811Y685D01*
X1848Y685D02*
X1858Y685D01*
X1901Y685D02*
X1911Y685D01*
X1948Y685D02*
X1958Y685D01*
X2001Y685D02*
X2011Y685D01*
X2048Y685D02*
X2058Y685D01*
X1301Y684D02*
X1311Y684D01*
X1348Y684D02*
X1358Y684D01*
X1401Y684D02*
X1411Y684D01*
X1448Y684D02*
X1458Y684D01*
X1501Y684D02*
X1511Y684D01*
X1548Y684D02*
X1558Y684D01*
X1601Y684D02*
X1611Y684D01*
X1648Y684D02*
X1658Y684D01*
X1701Y684D02*
X1711Y684D01*
X1748Y684D02*
X1758Y684D01*
X1801Y684D02*
X1811Y684D01*
X1848Y684D02*
X1858Y684D01*
X1901Y684D02*
X1911Y684D01*
X1948Y684D02*
X1958Y684D01*
X2001Y684D02*
X2011Y684D01*
X2048Y684D02*
X2058Y684D01*
X1301Y683D02*
X1311Y683D01*
X1349Y683D02*
X1358Y683D01*
X1401Y683D02*
X1411Y683D01*
X1449Y683D02*
X1458Y683D01*
X1501Y683D02*
X1511Y683D01*
X1549Y683D02*
X1558Y683D01*
X1601Y683D02*
X1611Y683D01*
X1649Y683D02*
X1658Y683D01*
X1701Y683D02*
X1711Y683D01*
X1749Y683D02*
X1758Y683D01*
X1801Y683D02*
X1811Y683D01*
X1849Y683D02*
X1858Y683D01*
X1901Y683D02*
X1911Y683D01*
X1949Y683D02*
X1958Y683D01*
X2001Y683D02*
X2011Y683D01*
X2049Y683D02*
X2058Y683D01*
X1301Y682D02*
X1311Y682D01*
X1349Y682D02*
X1358Y682D01*
X1401Y682D02*
X1411Y682D01*
X1449Y682D02*
X1458Y682D01*
X1501Y682D02*
X1510Y682D01*
X1549Y682D02*
X1558Y682D01*
X1601Y682D02*
X1610Y682D01*
X1649Y682D02*
X1658Y682D01*
X1701Y682D02*
X1710Y682D01*
X1749Y682D02*
X1758Y682D01*
X1801Y682D02*
X1810Y682D01*
X1849Y682D02*
X1858Y682D01*
X1901Y682D02*
X1910Y682D01*
X1949Y682D02*
X1958Y682D01*
X2001Y682D02*
X2010Y682D01*
X2049Y682D02*
X2058Y682D01*
X1301Y681D02*
X1310Y681D01*
X1349Y681D02*
X1358Y681D01*
X1401Y681D02*
X1410Y681D01*
X1449Y681D02*
X1458Y681D01*
X1501Y681D02*
X1510Y681D01*
X1549Y681D02*
X1558Y681D01*
X1601Y681D02*
X1610Y681D01*
X1649Y681D02*
X1658Y681D01*
X1701Y681D02*
X1710Y681D01*
X1749Y681D02*
X1758Y681D01*
X1801Y681D02*
X1810Y681D01*
X1849Y681D02*
X1858Y681D01*
X1901Y681D02*
X1910Y681D01*
X1949Y681D02*
X1958Y681D01*
X2001Y681D02*
X2010Y681D01*
X2049Y681D02*
X2058Y681D01*
X1301Y680D02*
X1310Y680D01*
X1349Y680D02*
X1358Y680D01*
X1401Y680D02*
X1410Y680D01*
X1449Y680D02*
X1458Y680D01*
X1501Y680D02*
X1510Y680D01*
X1549Y680D02*
X1558Y680D01*
X1601Y680D02*
X1610Y680D01*
X1649Y680D02*
X1658Y680D01*
X1701Y680D02*
X1710Y680D01*
X1749Y680D02*
X1758Y680D01*
X1801Y680D02*
X1810Y680D01*
X1849Y680D02*
X1858Y680D01*
X1901Y680D02*
X1910Y680D01*
X1949Y680D02*
X1958Y680D01*
X2001Y680D02*
X2010Y680D01*
X2049Y680D02*
X2058Y680D01*
X1301Y679D02*
X1310Y679D01*
X1349Y679D02*
X1358Y679D01*
X1401Y679D02*
X1410Y679D01*
X1449Y679D02*
X1458Y679D01*
X1501Y679D02*
X1510Y679D01*
X1549Y679D02*
X1558Y679D01*
X1601Y679D02*
X1610Y679D01*
X1649Y679D02*
X1658Y679D01*
X1701Y679D02*
X1710Y679D01*
X1749Y679D02*
X1758Y679D01*
X1801Y679D02*
X1810Y679D01*
X1849Y679D02*
X1858Y679D01*
X1901Y679D02*
X1910Y679D01*
X1949Y679D02*
X1958Y679D01*
X2001Y679D02*
X2010Y679D01*
X2049Y679D02*
X2058Y679D01*
X1301Y678D02*
X1310Y678D01*
X1349Y678D02*
X1358Y678D01*
X1401Y678D02*
X1410Y678D01*
X1449Y678D02*
X1458Y678D01*
X1501Y678D02*
X1510Y678D01*
X1549Y678D02*
X1558Y678D01*
X1601Y678D02*
X1610Y678D01*
X1649Y678D02*
X1658Y678D01*
X1701Y678D02*
X1710Y678D01*
X1749Y678D02*
X1758Y678D01*
X1801Y678D02*
X1810Y678D01*
X1849Y678D02*
X1858Y678D01*
X1901Y678D02*
X1910Y678D01*
X1949Y678D02*
X1958Y678D01*
X2001Y678D02*
X2010Y678D01*
X2049Y678D02*
X2058Y678D01*
X1301Y677D02*
X1310Y677D01*
X1349Y677D02*
X1358Y677D01*
X1401Y677D02*
X1410Y677D01*
X1449Y677D02*
X1458Y677D01*
X1501Y677D02*
X1510Y677D01*
X1549Y677D02*
X1558Y677D01*
X1601Y677D02*
X1610Y677D01*
X1649Y677D02*
X1658Y677D01*
X1701Y677D02*
X1710Y677D01*
X1749Y677D02*
X1758Y677D01*
X1801Y677D02*
X1810Y677D01*
X1849Y677D02*
X1858Y677D01*
X1901Y677D02*
X1910Y677D01*
X1949Y677D02*
X1958Y677D01*
X2001Y677D02*
X2010Y677D01*
X2049Y677D02*
X2058Y677D01*
X1301Y676D02*
X1310Y676D01*
X1349Y676D02*
X1358Y676D01*
X1401Y676D02*
X1410Y676D01*
X1449Y676D02*
X1458Y676D01*
X1501Y676D02*
X1510Y676D01*
X1549Y676D02*
X1558Y676D01*
X1601Y676D02*
X1610Y676D01*
X1649Y676D02*
X1658Y676D01*
X1701Y676D02*
X1710Y676D01*
X1749Y676D02*
X1758Y676D01*
X1801Y676D02*
X1810Y676D01*
X1849Y676D02*
X1858Y676D01*
X1901Y676D02*
X1910Y676D01*
X1949Y676D02*
X1958Y676D01*
X2001Y676D02*
X2010Y676D01*
X2049Y676D02*
X2058Y676D01*
X1301Y675D02*
X1311Y675D01*
X1349Y675D02*
X1358Y675D01*
X1401Y675D02*
X1411Y675D01*
X1449Y675D02*
X1458Y675D01*
X1501Y675D02*
X1510Y675D01*
X1549Y675D02*
X1558Y675D01*
X1601Y675D02*
X1610Y675D01*
X1649Y675D02*
X1658Y675D01*
X1701Y675D02*
X1710Y675D01*
X1749Y675D02*
X1758Y675D01*
X1801Y675D02*
X1810Y675D01*
X1849Y675D02*
X1858Y675D01*
X1901Y675D02*
X1910Y675D01*
X1949Y675D02*
X1958Y675D01*
X2001Y675D02*
X2010Y675D01*
X2049Y675D02*
X2058Y675D01*
X1301Y674D02*
X1311Y674D01*
X1349Y674D02*
X1358Y674D01*
X1401Y674D02*
X1411Y674D01*
X1449Y674D02*
X1458Y674D01*
X1501Y674D02*
X1511Y674D01*
X1549Y674D02*
X1558Y674D01*
X1601Y674D02*
X1611Y674D01*
X1649Y674D02*
X1658Y674D01*
X1701Y674D02*
X1711Y674D01*
X1749Y674D02*
X1758Y674D01*
X1801Y674D02*
X1811Y674D01*
X1849Y674D02*
X1858Y674D01*
X1901Y674D02*
X1911Y674D01*
X1949Y674D02*
X1958Y674D01*
X2001Y674D02*
X2011Y674D01*
X2049Y674D02*
X2058Y674D01*
X1301Y673D02*
X1311Y673D01*
X1348Y673D02*
X1358Y673D01*
X1401Y673D02*
X1411Y673D01*
X1448Y673D02*
X1458Y673D01*
X1501Y673D02*
X1511Y673D01*
X1548Y673D02*
X1558Y673D01*
X1601Y673D02*
X1611Y673D01*
X1648Y673D02*
X1658Y673D01*
X1701Y673D02*
X1711Y673D01*
X1748Y673D02*
X1758Y673D01*
X1801Y673D02*
X1811Y673D01*
X1848Y673D02*
X1858Y673D01*
X1901Y673D02*
X1911Y673D01*
X1948Y673D02*
X1958Y673D01*
X2001Y673D02*
X2011Y673D01*
X2048Y673D02*
X2058Y673D01*
X1301Y672D02*
X1311Y672D01*
X1348Y672D02*
X1358Y672D01*
X1401Y672D02*
X1411Y672D01*
X1448Y672D02*
X1458Y672D01*
X1501Y672D02*
X1511Y672D01*
X1548Y672D02*
X1558Y672D01*
X1601Y672D02*
X1611Y672D01*
X1648Y672D02*
X1658Y672D01*
X1701Y672D02*
X1711Y672D01*
X1748Y672D02*
X1758Y672D01*
X1801Y672D02*
X1811Y672D01*
X1848Y672D02*
X1858Y672D01*
X1901Y672D02*
X1911Y672D01*
X1948Y672D02*
X1958Y672D01*
X2001Y672D02*
X2011Y672D01*
X2048Y672D02*
X2058Y672D01*
X1301Y671D02*
X1312Y671D01*
X1348Y671D02*
X1358Y671D01*
X1401Y671D02*
X1412Y671D01*
X1448Y671D02*
X1458Y671D01*
X1501Y671D02*
X1512Y671D01*
X1548Y671D02*
X1558Y671D01*
X1601Y671D02*
X1612Y671D01*
X1648Y671D02*
X1658Y671D01*
X1701Y671D02*
X1712Y671D01*
X1748Y671D02*
X1758Y671D01*
X1801Y671D02*
X1812Y671D01*
X1848Y671D02*
X1858Y671D01*
X1901Y671D02*
X1912Y671D01*
X1948Y671D02*
X1958Y671D01*
X2001Y671D02*
X2012Y671D01*
X2048Y671D02*
X2058Y671D01*
X1301Y670D02*
X1312Y670D01*
X1347Y670D02*
X1358Y670D01*
X1401Y670D02*
X1412Y670D01*
X1447Y670D02*
X1458Y670D01*
X1501Y670D02*
X1512Y670D01*
X1547Y670D02*
X1558Y670D01*
X1601Y670D02*
X1612Y670D01*
X1647Y670D02*
X1658Y670D01*
X1701Y670D02*
X1712Y670D01*
X1747Y670D02*
X1758Y670D01*
X1801Y670D02*
X1812Y670D01*
X1847Y670D02*
X1858Y670D01*
X1901Y670D02*
X1912Y670D01*
X1947Y670D02*
X1958Y670D01*
X2001Y670D02*
X2012Y670D01*
X2047Y670D02*
X2058Y670D01*
X1301Y669D02*
X1313Y669D01*
X1347Y669D02*
X1358Y669D01*
X1401Y669D02*
X1413Y669D01*
X1447Y669D02*
X1458Y669D01*
X1501Y669D02*
X1513Y669D01*
X1547Y669D02*
X1558Y669D01*
X1601Y669D02*
X1613Y669D01*
X1647Y669D02*
X1658Y669D01*
X1701Y669D02*
X1713Y669D01*
X1747Y669D02*
X1758Y669D01*
X1801Y669D02*
X1813Y669D01*
X1847Y669D02*
X1858Y669D01*
X1901Y669D02*
X1913Y669D01*
X1947Y669D02*
X1958Y669D01*
X2001Y669D02*
X2013Y669D01*
X2047Y669D02*
X2058Y669D01*
X1301Y668D02*
X1313Y668D01*
X1346Y668D02*
X1358Y668D01*
X1401Y668D02*
X1413Y668D01*
X1446Y668D02*
X1458Y668D01*
X1501Y668D02*
X1513Y668D01*
X1546Y668D02*
X1558Y668D01*
X1601Y668D02*
X1613Y668D01*
X1646Y668D02*
X1658Y668D01*
X1701Y668D02*
X1713Y668D01*
X1746Y668D02*
X1758Y668D01*
X1801Y668D02*
X1813Y668D01*
X1846Y668D02*
X1858Y668D01*
X1901Y668D02*
X1913Y668D01*
X1946Y668D02*
X1958Y668D01*
X2001Y668D02*
X2013Y668D01*
X2046Y668D02*
X2058Y668D01*
X1301Y667D02*
X1314Y667D01*
X1345Y667D02*
X1358Y667D01*
X1401Y667D02*
X1414Y667D01*
X1445Y667D02*
X1458Y667D01*
X1501Y667D02*
X1514Y667D01*
X1545Y667D02*
X1558Y667D01*
X1601Y667D02*
X1614Y667D01*
X1645Y667D02*
X1658Y667D01*
X1701Y667D02*
X1714Y667D01*
X1745Y667D02*
X1758Y667D01*
X1801Y667D02*
X1814Y667D01*
X1845Y667D02*
X1858Y667D01*
X1901Y667D02*
X1914Y667D01*
X1945Y667D02*
X1958Y667D01*
X2001Y667D02*
X2014Y667D01*
X2045Y667D02*
X2058Y667D01*
X1301Y666D02*
X1315Y666D01*
X1345Y666D02*
X1358Y666D01*
X1401Y666D02*
X1415Y666D01*
X1445Y666D02*
X1458Y666D01*
X1501Y666D02*
X1515Y666D01*
X1545Y666D02*
X1558Y666D01*
X1601Y666D02*
X1615Y666D01*
X1644Y666D02*
X1658Y666D01*
X1701Y666D02*
X1715Y666D01*
X1744Y666D02*
X1758Y666D01*
X1801Y666D02*
X1815Y666D01*
X1844Y666D02*
X1858Y666D01*
X1901Y666D02*
X1915Y666D01*
X1944Y666D02*
X1958Y666D01*
X2001Y666D02*
X2015Y666D01*
X2044Y666D02*
X2058Y666D01*
X1301Y665D02*
X1316Y665D01*
X1344Y665D02*
X1358Y665D01*
X1401Y665D02*
X1416Y665D01*
X1444Y665D02*
X1458Y665D01*
X1501Y665D02*
X1516Y665D01*
X1544Y665D02*
X1558Y665D01*
X1601Y665D02*
X1616Y665D01*
X1644Y665D02*
X1658Y665D01*
X1701Y665D02*
X1716Y665D01*
X1744Y665D02*
X1758Y665D01*
X1801Y665D02*
X1816Y665D01*
X1844Y665D02*
X1858Y665D01*
X1901Y665D02*
X1916Y665D01*
X1944Y665D02*
X1958Y665D01*
X2001Y665D02*
X2016Y665D01*
X2043Y665D02*
X2058Y665D01*
X1301Y664D02*
X1317Y664D01*
X1343Y664D02*
X1358Y664D01*
X1401Y664D02*
X1417Y664D01*
X1442Y664D02*
X1458Y664D01*
X1501Y664D02*
X1517Y664D01*
X1542Y664D02*
X1558Y664D01*
X1601Y664D02*
X1617Y664D01*
X1642Y664D02*
X1658Y664D01*
X1701Y664D02*
X1717Y664D01*
X1742Y664D02*
X1758Y664D01*
X1801Y664D02*
X1817Y664D01*
X1842Y664D02*
X1858Y664D01*
X1901Y664D02*
X1917Y664D01*
X1942Y664D02*
X1958Y664D01*
X2001Y664D02*
X2017Y664D01*
X2042Y664D02*
X2058Y664D01*
X1301Y663D02*
X1318Y663D01*
X1341Y663D02*
X1358Y663D01*
X1401Y663D02*
X1418Y663D01*
X1441Y663D02*
X1458Y663D01*
X1501Y663D02*
X1518Y663D01*
X1541Y663D02*
X1558Y663D01*
X1601Y663D02*
X1618Y663D01*
X1641Y663D02*
X1658Y663D01*
X1701Y663D02*
X1718Y663D01*
X1741Y663D02*
X1758Y663D01*
X1801Y663D02*
X1818Y663D01*
X1841Y663D02*
X1858Y663D01*
X1901Y663D02*
X1918Y663D01*
X1941Y663D02*
X1958Y663D01*
X2001Y663D02*
X2018Y663D01*
X2041Y663D02*
X2058Y663D01*
X1301Y662D02*
X1320Y662D01*
X1340Y662D02*
X1358Y662D01*
X1401Y662D02*
X1420Y662D01*
X1440Y662D02*
X1458Y662D01*
X1501Y662D02*
X1520Y662D01*
X1540Y662D02*
X1558Y662D01*
X1601Y662D02*
X1620Y662D01*
X1640Y662D02*
X1658Y662D01*
X1701Y662D02*
X1720Y662D01*
X1740Y662D02*
X1758Y662D01*
X1801Y662D02*
X1820Y662D01*
X1839Y662D02*
X1858Y662D01*
X1901Y662D02*
X1920Y662D01*
X1939Y662D02*
X1958Y662D01*
X2001Y662D02*
X2020Y662D01*
X2039Y662D02*
X2058Y662D01*
X1301Y661D02*
X1322Y661D01*
X1338Y661D02*
X1358Y661D01*
X1401Y661D02*
X1422Y661D01*
X1438Y661D02*
X1458Y661D01*
X1501Y661D02*
X1522Y661D01*
X1538Y661D02*
X1558Y661D01*
X1601Y661D02*
X1622Y661D01*
X1638Y661D02*
X1658Y661D01*
X1701Y661D02*
X1722Y661D01*
X1738Y661D02*
X1758Y661D01*
X1801Y661D02*
X1822Y661D01*
X1838Y661D02*
X1858Y661D01*
X1901Y661D02*
X1922Y661D01*
X1938Y661D02*
X1958Y661D01*
X2001Y661D02*
X2022Y661D01*
X2038Y661D02*
X2058Y661D01*
X1301Y660D02*
X1325Y660D01*
X1335Y660D02*
X1358Y660D01*
X1401Y660D02*
X1425Y660D01*
X1435Y660D02*
X1458Y660D01*
X1501Y660D02*
X1525Y660D01*
X1535Y660D02*
X1558Y660D01*
X1601Y660D02*
X1625Y660D01*
X1635Y660D02*
X1658Y660D01*
X1701Y660D02*
X1725Y660D01*
X1735Y660D02*
X1758Y660D01*
X1801Y660D02*
X1825Y660D01*
X1835Y660D02*
X1858Y660D01*
X1901Y660D02*
X1925Y660D01*
X1934Y660D02*
X1958Y660D01*
X2001Y660D02*
X2025Y660D01*
X2034Y660D02*
X2058Y660D01*
X1301Y659D02*
X1358Y659D01*
X1401Y659D02*
X1458Y659D01*
X1501Y659D02*
X1558Y659D01*
X1601Y659D02*
X1658Y659D01*
X1701Y659D02*
X1758Y659D01*
X1801Y659D02*
X1858Y659D01*
X1901Y659D02*
X1958Y659D01*
X2001Y659D02*
X2058Y659D01*
X1301Y658D02*
X1358Y658D01*
X1401Y658D02*
X1458Y658D01*
X1501Y658D02*
X1558Y658D01*
X1601Y658D02*
X1658Y658D01*
X1701Y658D02*
X1758Y658D01*
X1801Y658D02*
X1858Y658D01*
X1901Y658D02*
X1958Y658D01*
X2001Y658D02*
X2058Y658D01*
X1301Y657D02*
X1358Y657D01*
X1401Y657D02*
X1458Y657D01*
X1501Y657D02*
X1558Y657D01*
X1601Y657D02*
X1658Y657D01*
X1701Y657D02*
X1758Y657D01*
X1801Y657D02*
X1858Y657D01*
X1901Y657D02*
X1958Y657D01*
X2001Y657D02*
X2058Y657D01*
X1301Y656D02*
X1358Y656D01*
X1401Y656D02*
X1458Y656D01*
X1501Y656D02*
X1558Y656D01*
X1601Y656D02*
X1658Y656D01*
X1701Y656D02*
X1758Y656D01*
X1801Y656D02*
X1858Y656D01*
X1901Y656D02*
X1958Y656D01*
X2001Y656D02*
X2058Y656D01*
X1301Y655D02*
X1358Y655D01*
X1401Y655D02*
X1458Y655D01*
X1501Y655D02*
X1558Y655D01*
X1601Y655D02*
X1658Y655D01*
X1701Y655D02*
X1758Y655D01*
X1801Y655D02*
X1858Y655D01*
X1901Y655D02*
X1958Y655D01*
X2001Y655D02*
X2058Y655D01*
X1301Y654D02*
X1358Y654D01*
X1401Y654D02*
X1458Y654D01*
X1501Y654D02*
X1558Y654D01*
X1601Y654D02*
X1658Y654D01*
X1701Y654D02*
X1758Y654D01*
X1801Y654D02*
X1858Y654D01*
X1901Y654D02*
X1958Y654D01*
X2001Y654D02*
X2058Y654D01*
X1301Y653D02*
X1358Y653D01*
X1401Y653D02*
X1458Y653D01*
X1501Y653D02*
X1558Y653D01*
X1601Y653D02*
X1658Y653D01*
X1701Y653D02*
X1758Y653D01*
X1801Y653D02*
X1858Y653D01*
X1901Y653D02*
X1958Y653D01*
X2001Y653D02*
X2058Y653D01*
X1301Y652D02*
X1358Y652D01*
X1401Y652D02*
X1458Y652D01*
X1501Y652D02*
X1558Y652D01*
X1601Y652D02*
X1658Y652D01*
X1701Y652D02*
X1758Y652D01*
X1801Y652D02*
X1858Y652D01*
X1901Y652D02*
X1958Y652D01*
X2001Y652D02*
X2058Y652D01*
X1301Y651D02*
X1358Y651D01*
X1401Y651D02*
X1458Y651D01*
X1501Y651D02*
X1558Y651D01*
X1601Y651D02*
X1658Y651D01*
X1701Y651D02*
X1758Y651D01*
X1801Y651D02*
X1858Y651D01*
X1901Y651D02*
X1958Y651D01*
X2001Y651D02*
X2058Y651D01*
X1301Y650D02*
X1358Y650D01*
X1401Y650D02*
X1458Y650D01*
X1501Y650D02*
X1558Y650D01*
X1601Y650D02*
X1658Y650D01*
X1701Y650D02*
X1758Y650D01*
X1801Y650D02*
X1858Y650D01*
X1901Y650D02*
X1958Y650D01*
X2001Y650D02*
X2058Y650D01*
X1301Y649D02*
X1358Y649D01*
X1401Y649D02*
X1458Y649D01*
X1501Y649D02*
X1558Y649D01*
X1601Y649D02*
X1658Y649D01*
X1701Y649D02*
X1758Y649D01*
X1801Y649D02*
X1858Y649D01*
X1901Y649D02*
X1958Y649D01*
X2001Y649D02*
X2058Y649D01*
X1301Y648D02*
X1358Y648D01*
X1401Y648D02*
X1458Y648D01*
X1501Y648D02*
X1558Y648D01*
X1601Y648D02*
X1658Y648D01*
X1701Y648D02*
X1758Y648D01*
X1801Y648D02*
X1858Y648D01*
X1901Y648D02*
X1958Y648D01*
X2001Y648D02*
X2058Y648D01*
X1301Y647D02*
X1358Y647D01*
X1401Y647D02*
X1458Y647D01*
X1501Y647D02*
X1558Y647D01*
X1601Y647D02*
X1658Y647D01*
X1701Y647D02*
X1758Y647D01*
X1801Y647D02*
X1858Y647D01*
X1901Y647D02*
X1958Y647D01*
X2001Y647D02*
X2058Y647D01*
X1301Y646D02*
X1358Y646D01*
X1401Y646D02*
X1458Y646D01*
X1501Y646D02*
X1558Y646D01*
X1601Y646D02*
X1658Y646D01*
X1701Y646D02*
X1758Y646D01*
X1801Y646D02*
X1858Y646D01*
X1901Y646D02*
X1958Y646D01*
X2001Y646D02*
X2058Y646D01*
X1302Y645D02*
X1358Y645D01*
X1402Y645D02*
X1458Y645D01*
X1501Y645D02*
X1558Y645D01*
X1601Y645D02*
X1658Y645D01*
X1701Y645D02*
X1758Y645D01*
X1801Y645D02*
X1858Y645D01*
X1901Y645D02*
X1958Y645D01*
X2001Y645D02*
X2058Y645D01*
X1302Y644D02*
X1358Y644D01*
X1402Y644D02*
X1458Y644D01*
X1502Y644D02*
X1558Y644D01*
X1602Y644D02*
X1658Y644D01*
X1702Y644D02*
X1758Y644D01*
X1802Y644D02*
X1858Y644D01*
X1902Y644D02*
X1958Y644D01*
X2002Y644D02*
X2058Y644D01*
X1302Y643D02*
X1358Y643D01*
X1402Y643D02*
X1458Y643D01*
X1502Y643D02*
X1558Y643D01*
X1602Y643D02*
X1658Y643D01*
X1702Y643D02*
X1758Y643D01*
X1802Y643D02*
X1857Y643D01*
X1902Y643D02*
X1957Y643D01*
X2002Y643D02*
X2057Y643D01*
X1302Y642D02*
X1357Y642D01*
X1402Y642D02*
X1457Y642D01*
X1502Y642D02*
X1557Y642D01*
X1602Y642D02*
X1657Y642D01*
X1702Y642D02*
X1757Y642D01*
X1802Y642D02*
X1857Y642D01*
X1902Y642D02*
X1957Y642D01*
X2002Y642D02*
X2057Y642D01*
X1302Y641D02*
X1357Y641D01*
X1402Y641D02*
X1457Y641D01*
X1502Y641D02*
X1557Y641D01*
X1602Y641D02*
X1657Y641D01*
X1702Y641D02*
X1757Y641D01*
X1802Y641D02*
X1857Y641D01*
X1902Y641D02*
X1957Y641D01*
X2002Y641D02*
X2057Y641D01*
X1303Y640D02*
X1357Y640D01*
X1403Y640D02*
X1457Y640D01*
X1503Y640D02*
X1557Y640D01*
X1603Y640D02*
X1657Y640D01*
X1703Y640D02*
X1757Y640D01*
X1803Y640D02*
X1857Y640D01*
X1903Y640D02*
X1957Y640D01*
X2003Y640D02*
X2057Y640D01*
X1303Y639D02*
X1356Y639D01*
X1403Y639D02*
X1456Y639D01*
X1503Y639D02*
X1556Y639D01*
X1603Y639D02*
X1656Y639D01*
X1703Y639D02*
X1756Y639D01*
X1803Y639D02*
X1856Y639D01*
X1903Y639D02*
X1956Y639D01*
X2003Y639D02*
X2056Y639D01*
X1304Y638D02*
X1356Y638D01*
X1404Y638D02*
X1456Y638D01*
X1503Y638D02*
X1556Y638D01*
X1603Y638D02*
X1656Y638D01*
X1703Y638D02*
X1756Y638D01*
X1803Y638D02*
X1856Y638D01*
X1903Y638D02*
X1956Y638D01*
X2003Y638D02*
X2056Y638D01*
X1304Y637D02*
X1356Y637D01*
X1404Y637D02*
X1456Y637D01*
X1504Y637D02*
X1555Y637D01*
X1604Y637D02*
X1655Y637D01*
X1704Y637D02*
X1755Y637D01*
X1804Y637D02*
X1855Y637D01*
X1904Y637D02*
X1955Y637D01*
X2004Y637D02*
X2055Y637D01*
X1304Y636D02*
X1355Y636D01*
X1404Y636D02*
X1455Y636D01*
X1504Y636D02*
X1555Y636D01*
X1604Y636D02*
X1655Y636D01*
X1704Y636D02*
X1755Y636D01*
X1804Y636D02*
X1855Y636D01*
X1904Y636D02*
X1955Y636D01*
X2004Y636D02*
X2055Y636D01*
X1305Y635D02*
X1355Y635D01*
X1405Y635D02*
X1454Y635D01*
X1505Y635D02*
X1554Y635D01*
X1605Y635D02*
X1654Y635D01*
X1705Y635D02*
X1754Y635D01*
X1805Y635D02*
X1854Y635D01*
X1905Y635D02*
X1954Y635D01*
X2005Y635D02*
X2054Y635D01*
X1306Y634D02*
X1354Y634D01*
X1406Y634D02*
X1454Y634D01*
X1506Y634D02*
X1554Y634D01*
X1606Y634D02*
X1654Y634D01*
X1706Y634D02*
X1754Y634D01*
X1806Y634D02*
X1854Y634D01*
X1905Y634D02*
X1954Y634D01*
X2005Y634D02*
X2054Y634D01*
X1306Y633D02*
X1353Y633D01*
X1406Y633D02*
X1453Y633D01*
X1506Y633D02*
X1553Y633D01*
X1606Y633D02*
X1653Y633D01*
X1706Y633D02*
X1753Y633D01*
X1806Y633D02*
X1853Y633D01*
X1906Y633D02*
X1953Y633D01*
X2006Y633D02*
X2053Y633D01*
X1307Y632D02*
X1353Y632D01*
X1407Y632D02*
X1452Y632D01*
X1507Y632D02*
X1552Y632D01*
X1607Y632D02*
X1652Y632D01*
X1707Y632D02*
X1752Y632D01*
X1807Y632D02*
X1852Y632D01*
X1907Y632D02*
X1952Y632D01*
X2007Y632D02*
X2052Y632D01*
X1308Y631D02*
X1352Y631D01*
X1408Y631D02*
X1452Y631D01*
X1508Y631D02*
X1552Y631D01*
X1608Y631D02*
X1652Y631D01*
X1708Y631D02*
X1752Y631D01*
X1808Y631D02*
X1852Y631D01*
X1908Y631D02*
X1952Y631D01*
X2008Y631D02*
X2052Y631D01*
X1309Y630D02*
X1351Y630D01*
X1409Y630D02*
X1451Y630D01*
X1509Y630D02*
X1551Y630D01*
X1609Y630D02*
X1651Y630D01*
X1709Y630D02*
X1751Y630D01*
X1809Y630D02*
X1851Y630D01*
X1909Y630D02*
X1951Y630D01*
X2008Y630D02*
X2051Y630D01*
X1310Y629D02*
X1350Y629D01*
X1410Y629D02*
X1450Y629D01*
X1510Y629D02*
X1550Y629D01*
X1610Y629D02*
X1650Y629D01*
X1709Y629D02*
X1750Y629D01*
X1809Y629D02*
X1850Y629D01*
X1909Y629D02*
X1950Y629D01*
X2009Y629D02*
X2050Y629D01*
X1311Y628D02*
X1349Y628D01*
X1411Y628D02*
X1449Y628D01*
X1511Y628D02*
X1549Y628D01*
X1611Y628D02*
X1649Y628D01*
X1711Y628D02*
X1749Y628D01*
X1811Y628D02*
X1849Y628D01*
X1910Y628D02*
X1949Y628D01*
X2010Y628D02*
X2049Y628D01*
X1312Y627D02*
X1348Y627D01*
X1412Y627D02*
X1448Y627D01*
X1512Y627D02*
X1548Y627D01*
X1612Y627D02*
X1648Y627D01*
X1712Y627D02*
X1748Y627D01*
X1812Y627D02*
X1848Y627D01*
X1912Y627D02*
X1948Y627D01*
X2012Y627D02*
X2048Y627D01*
X1313Y626D02*
X1346Y626D01*
X1413Y626D02*
X1446Y626D01*
X1513Y626D02*
X1546Y626D01*
X1613Y626D02*
X1646Y626D01*
X1713Y626D02*
X1746Y626D01*
X1813Y626D02*
X1846Y626D01*
X1913Y626D02*
X1946Y626D01*
X2013Y626D02*
X2046Y626D01*
X1315Y625D02*
X1345Y625D01*
X1415Y625D02*
X1445Y625D01*
X1514Y625D02*
X1545Y625D01*
X1614Y625D02*
X1645Y625D01*
X1714Y625D02*
X1745Y625D01*
X1814Y625D02*
X1845Y625D01*
X1914Y625D02*
X1945Y625D01*
X2014Y625D02*
X2045Y625D01*
X1316Y624D02*
X1343Y624D01*
X1416Y624D02*
X1443Y624D01*
X1516Y624D02*
X1543Y624D01*
X1616Y624D02*
X1643Y624D01*
X1716Y624D02*
X1743Y624D01*
X1816Y624D02*
X1843Y624D01*
X1916Y624D02*
X1943Y624D01*
X2016Y624D02*
X2043Y624D01*
X1318Y623D02*
X1341Y623D01*
X1418Y623D02*
X1441Y623D01*
X1518Y623D02*
X1541Y623D01*
X1618Y623D02*
X1641Y623D01*
X1718Y623D02*
X1741Y623D01*
X1818Y623D02*
X1841Y623D01*
X1918Y623D02*
X1941Y623D01*
X2018Y623D02*
X2041Y623D01*
X1321Y622D02*
X1339Y622D01*
X1421Y622D02*
X1439Y622D01*
X1521Y622D02*
X1539Y622D01*
X1621Y622D02*
X1639Y622D01*
X1721Y622D02*
X1739Y622D01*
X1821Y622D02*
X1839Y622D01*
X1921Y622D02*
X1939Y622D01*
X2021Y622D02*
X2039Y622D01*
X1324Y621D02*
X1335Y621D01*
X1424Y621D02*
X1435Y621D01*
X1524Y621D02*
X1535Y621D01*
X1624Y621D02*
X1635Y621D01*
X1724Y621D02*
X1735Y621D01*
X1824Y621D02*
X1835Y621D01*
X1924Y621D02*
X1935Y621D01*
X2024Y621D02*
X2035Y621D01*
X1324Y436D02*
X1336Y436D01*
X1424Y436D02*
X1436Y436D01*
X1524Y436D02*
X1536Y436D01*
X1624Y436D02*
X1636Y436D01*
X1723Y436D02*
X1736Y436D01*
X1823Y436D02*
X1836Y436D01*
X1923Y436D02*
X1936Y436D01*
X2023Y436D02*
X2036Y436D01*
X1320Y435D02*
X1339Y435D01*
X1420Y435D02*
X1439Y435D01*
X1520Y435D02*
X1539Y435D01*
X1620Y435D02*
X1639Y435D01*
X1720Y435D02*
X1739Y435D01*
X1820Y435D02*
X1839Y435D01*
X1920Y435D02*
X1939Y435D01*
X2020Y435D02*
X2039Y435D01*
X1318Y434D02*
X1342Y434D01*
X1418Y434D02*
X1442Y434D01*
X1518Y434D02*
X1542Y434D01*
X1618Y434D02*
X1642Y434D01*
X1718Y434D02*
X1742Y434D01*
X1818Y434D02*
X1842Y434D01*
X1918Y434D02*
X1941Y434D01*
X2018Y434D02*
X2041Y434D01*
X1316Y433D02*
X1344Y433D01*
X1416Y433D02*
X1444Y433D01*
X1516Y433D02*
X1544Y433D01*
X1616Y433D02*
X1644Y433D01*
X1716Y433D02*
X1743Y433D01*
X1816Y433D02*
X1843Y433D01*
X1916Y433D02*
X1943Y433D01*
X2016Y433D02*
X2043Y433D01*
X1314Y432D02*
X1345Y432D01*
X1414Y432D02*
X1445Y432D01*
X1514Y432D02*
X1545Y432D01*
X1614Y432D02*
X1645Y432D01*
X1714Y432D02*
X1745Y432D01*
X1814Y432D02*
X1845Y432D01*
X1914Y432D02*
X1945Y432D01*
X2014Y432D02*
X2045Y432D01*
X1313Y431D02*
X1347Y431D01*
X1413Y431D02*
X1447Y431D01*
X1513Y431D02*
X1547Y431D01*
X1613Y431D02*
X1647Y431D01*
X1713Y431D02*
X1747Y431D01*
X1813Y431D02*
X1847Y431D01*
X1913Y431D02*
X1946Y431D01*
X2013Y431D02*
X2046Y431D01*
X1312Y430D02*
X1348Y430D01*
X1412Y430D02*
X1448Y430D01*
X1512Y430D02*
X1548Y430D01*
X1612Y430D02*
X1648Y430D01*
X1711Y430D02*
X1748Y430D01*
X1811Y430D02*
X1848Y430D01*
X1911Y430D02*
X1948Y430D01*
X2011Y430D02*
X2048Y430D01*
X1310Y429D02*
X1349Y429D01*
X1410Y429D02*
X1449Y429D01*
X1510Y429D02*
X1549Y429D01*
X1610Y429D02*
X1649Y429D01*
X1710Y429D02*
X1749Y429D01*
X1810Y429D02*
X1849Y429D01*
X1910Y429D02*
X1949Y429D01*
X2010Y429D02*
X2049Y429D01*
X1309Y428D02*
X1350Y428D01*
X1409Y428D02*
X1450Y428D01*
X1509Y428D02*
X1550Y428D01*
X1609Y428D02*
X1650Y428D01*
X1709Y428D02*
X1750Y428D01*
X1809Y428D02*
X1850Y428D01*
X1909Y428D02*
X1950Y428D01*
X2009Y428D02*
X2050Y428D01*
X1309Y427D02*
X1351Y427D01*
X1409Y427D02*
X1451Y427D01*
X1508Y427D02*
X1551Y427D01*
X1608Y427D02*
X1651Y427D01*
X1708Y427D02*
X1751Y427D01*
X1808Y427D02*
X1851Y427D01*
X1908Y427D02*
X1951Y427D01*
X2008Y427D02*
X2051Y427D01*
X1308Y426D02*
X1352Y426D01*
X1408Y426D02*
X1452Y426D01*
X1508Y426D02*
X1552Y426D01*
X1608Y426D02*
X1652Y426D01*
X1708Y426D02*
X1752Y426D01*
X1808Y426D02*
X1852Y426D01*
X1907Y426D02*
X1952Y426D01*
X2007Y426D02*
X2052Y426D01*
X1307Y425D02*
X1353Y425D01*
X1407Y425D02*
X1453Y425D01*
X1507Y425D02*
X1553Y425D01*
X1607Y425D02*
X1653Y425D01*
X1707Y425D02*
X1753Y425D01*
X1807Y425D02*
X1852Y425D01*
X1907Y425D02*
X1952Y425D01*
X2007Y425D02*
X2052Y425D01*
X1306Y424D02*
X1353Y424D01*
X1406Y424D02*
X1453Y424D01*
X1506Y424D02*
X1553Y424D01*
X1606Y424D02*
X1653Y424D01*
X1706Y424D02*
X1753Y424D01*
X1806Y424D02*
X1853Y424D01*
X1906Y424D02*
X1953Y424D01*
X2006Y424D02*
X2053Y424D01*
X1306Y423D02*
X1354Y423D01*
X1406Y423D02*
X1454Y423D01*
X1506Y423D02*
X1554Y423D01*
X1605Y423D02*
X1654Y423D01*
X1705Y423D02*
X1754Y423D01*
X1805Y423D02*
X1854Y423D01*
X1905Y423D02*
X1954Y423D01*
X2005Y423D02*
X2054Y423D01*
X1305Y422D02*
X1355Y422D01*
X1405Y422D02*
X1455Y422D01*
X1505Y422D02*
X1555Y422D01*
X1605Y422D02*
X1655Y422D01*
X1705Y422D02*
X1754Y422D01*
X1805Y422D02*
X1854Y422D01*
X1905Y422D02*
X1954Y422D01*
X2005Y422D02*
X2054Y422D01*
X1304Y421D02*
X1355Y421D01*
X1404Y421D02*
X1455Y421D01*
X1504Y421D02*
X1555Y421D01*
X1604Y421D02*
X1655Y421D01*
X1704Y421D02*
X1755Y421D01*
X1804Y421D02*
X1855Y421D01*
X1904Y421D02*
X1955Y421D01*
X2004Y421D02*
X2055Y421D01*
X1304Y420D02*
X1356Y420D01*
X1404Y420D02*
X1456Y420D01*
X1504Y420D02*
X1556Y420D01*
X1604Y420D02*
X1656Y420D01*
X1704Y420D02*
X1755Y420D01*
X1804Y420D02*
X1855Y420D01*
X1904Y420D02*
X1955Y420D01*
X2004Y420D02*
X2055Y420D01*
X1303Y419D02*
X1356Y419D01*
X1403Y419D02*
X1456Y419D01*
X1503Y419D02*
X1556Y419D01*
X1603Y419D02*
X1656Y419D01*
X1703Y419D02*
X1756Y419D01*
X1803Y419D02*
X1856Y419D01*
X1903Y419D02*
X1956Y419D01*
X2003Y419D02*
X2056Y419D01*
X1303Y418D02*
X1356Y418D01*
X1403Y418D02*
X1456Y418D01*
X1503Y418D02*
X1556Y418D01*
X1603Y418D02*
X1656Y418D01*
X1703Y418D02*
X1756Y418D01*
X1803Y418D02*
X1856Y418D01*
X1903Y418D02*
X1956Y418D01*
X2003Y418D02*
X2056Y418D01*
X1303Y417D02*
X1357Y417D01*
X1403Y417D02*
X1457Y417D01*
X1503Y417D02*
X1557Y417D01*
X1603Y417D02*
X1657Y417D01*
X1703Y417D02*
X1757Y417D01*
X1803Y417D02*
X1857Y417D01*
X1903Y417D02*
X1957Y417D01*
X2003Y417D02*
X2057Y417D01*
X1302Y416D02*
X1357Y416D01*
X1402Y416D02*
X1457Y416D01*
X1502Y416D02*
X1557Y416D01*
X1602Y416D02*
X1657Y416D01*
X1702Y416D02*
X1757Y416D01*
X1802Y416D02*
X1857Y416D01*
X1902Y416D02*
X1957Y416D01*
X2002Y416D02*
X2057Y416D01*
X1302Y415D02*
X1357Y415D01*
X1402Y415D02*
X1457Y415D01*
X1502Y415D02*
X1557Y415D01*
X1602Y415D02*
X1657Y415D01*
X1702Y415D02*
X1757Y415D01*
X1802Y415D02*
X1857Y415D01*
X1902Y415D02*
X1957Y415D01*
X2002Y415D02*
X2057Y415D01*
X1302Y414D02*
X1358Y414D01*
X1402Y414D02*
X1458Y414D01*
X1502Y414D02*
X1558Y414D01*
X1602Y414D02*
X1658Y414D01*
X1702Y414D02*
X1758Y414D01*
X1802Y414D02*
X1858Y414D01*
X1902Y414D02*
X1957Y414D01*
X2002Y414D02*
X2057Y414D01*
X1302Y413D02*
X1358Y413D01*
X1402Y413D02*
X1458Y413D01*
X1502Y413D02*
X1558Y413D01*
X1602Y413D02*
X1658Y413D01*
X1702Y413D02*
X1758Y413D01*
X1802Y413D02*
X1858Y413D01*
X1902Y413D02*
X1958Y413D01*
X2001Y413D02*
X2058Y413D01*
X1302Y412D02*
X1358Y412D01*
X1402Y412D02*
X1458Y412D01*
X1501Y412D02*
X1558Y412D01*
X1601Y412D02*
X1658Y412D01*
X1701Y412D02*
X1758Y412D01*
X1801Y412D02*
X1858Y412D01*
X1901Y412D02*
X1958Y412D01*
X2001Y412D02*
X2058Y412D01*
X1301Y411D02*
X1358Y411D01*
X1401Y411D02*
X1458Y411D01*
X1501Y411D02*
X1558Y411D01*
X1601Y411D02*
X1658Y411D01*
X1701Y411D02*
X1758Y411D01*
X1801Y411D02*
X1858Y411D01*
X1901Y411D02*
X1958Y411D01*
X2001Y411D02*
X2058Y411D01*
X1301Y410D02*
X1358Y410D01*
X1401Y410D02*
X1458Y410D01*
X1501Y410D02*
X1558Y410D01*
X1601Y410D02*
X1658Y410D01*
X1701Y410D02*
X1758Y410D01*
X1801Y410D02*
X1858Y410D01*
X1901Y410D02*
X1958Y410D01*
X2001Y410D02*
X2058Y410D01*
X1301Y409D02*
X1358Y409D01*
X1401Y409D02*
X1458Y409D01*
X1501Y409D02*
X1558Y409D01*
X1601Y409D02*
X1658Y409D01*
X1701Y409D02*
X1758Y409D01*
X1801Y409D02*
X1858Y409D01*
X1901Y409D02*
X1958Y409D01*
X2001Y409D02*
X2058Y409D01*
X1301Y408D02*
X1358Y408D01*
X1401Y408D02*
X1458Y408D01*
X1501Y408D02*
X1558Y408D01*
X1601Y408D02*
X1658Y408D01*
X1701Y408D02*
X1758Y408D01*
X1801Y408D02*
X1858Y408D01*
X1901Y408D02*
X1958Y408D01*
X2001Y408D02*
X2058Y408D01*
X1301Y407D02*
X1358Y407D01*
X1401Y407D02*
X1458Y407D01*
X1501Y407D02*
X1558Y407D01*
X1601Y407D02*
X1658Y407D01*
X1701Y407D02*
X1758Y407D01*
X1801Y407D02*
X1858Y407D01*
X1901Y407D02*
X1958Y407D01*
X2001Y407D02*
X2058Y407D01*
X1301Y406D02*
X1358Y406D01*
X1401Y406D02*
X1458Y406D01*
X1501Y406D02*
X1558Y406D01*
X1601Y406D02*
X1658Y406D01*
X1701Y406D02*
X1758Y406D01*
X1801Y406D02*
X1858Y406D01*
X1901Y406D02*
X1958Y406D01*
X2001Y406D02*
X2058Y406D01*
X1301Y405D02*
X1358Y405D01*
X1401Y405D02*
X1458Y405D01*
X1501Y405D02*
X1558Y405D01*
X1601Y405D02*
X1658Y405D01*
X1701Y405D02*
X1758Y405D01*
X1801Y405D02*
X1858Y405D01*
X1901Y405D02*
X1958Y405D01*
X2001Y405D02*
X2058Y405D01*
X1301Y404D02*
X1358Y404D01*
X1401Y404D02*
X1458Y404D01*
X1501Y404D02*
X1558Y404D01*
X1601Y404D02*
X1658Y404D01*
X1701Y404D02*
X1758Y404D01*
X1801Y404D02*
X1858Y404D01*
X1901Y404D02*
X1958Y404D01*
X2001Y404D02*
X2058Y404D01*
X1301Y403D02*
X1358Y403D01*
X1401Y403D02*
X1458Y403D01*
X1501Y403D02*
X1558Y403D01*
X1601Y403D02*
X1658Y403D01*
X1701Y403D02*
X1758Y403D01*
X1801Y403D02*
X1858Y403D01*
X1901Y403D02*
X1958Y403D01*
X2001Y403D02*
X2058Y403D01*
X1301Y402D02*
X1358Y402D01*
X1401Y402D02*
X1458Y402D01*
X1501Y402D02*
X1558Y402D01*
X1601Y402D02*
X1658Y402D01*
X1701Y402D02*
X1758Y402D01*
X1801Y402D02*
X1858Y402D01*
X1901Y402D02*
X1958Y402D01*
X2001Y402D02*
X2058Y402D01*
X1301Y401D02*
X1358Y401D01*
X1401Y401D02*
X1458Y401D01*
X1501Y401D02*
X1558Y401D01*
X1601Y401D02*
X1658Y401D01*
X1701Y401D02*
X1758Y401D01*
X1801Y401D02*
X1858Y401D01*
X1901Y401D02*
X1958Y401D01*
X2001Y401D02*
X2058Y401D01*
X1301Y400D02*
X1358Y400D01*
X1401Y400D02*
X1458Y400D01*
X1501Y400D02*
X1558Y400D01*
X1601Y400D02*
X1658Y400D01*
X1701Y400D02*
X1758Y400D01*
X1801Y400D02*
X1858Y400D01*
X1901Y400D02*
X1958Y400D01*
X2001Y400D02*
X2058Y400D01*
X1301Y399D02*
X1358Y399D01*
X1401Y399D02*
X1458Y399D01*
X1501Y399D02*
X1558Y399D01*
X1601Y399D02*
X1658Y399D01*
X1701Y399D02*
X1758Y399D01*
X1801Y399D02*
X1858Y399D01*
X1901Y399D02*
X1958Y399D01*
X2001Y399D02*
X2058Y399D01*
X1301Y398D02*
X1358Y398D01*
X1401Y398D02*
X1458Y398D01*
X1501Y398D02*
X1558Y398D01*
X1601Y398D02*
X1658Y398D01*
X1701Y398D02*
X1758Y398D01*
X1801Y398D02*
X1858Y398D01*
X1901Y398D02*
X1958Y398D01*
X2001Y398D02*
X2058Y398D01*
X1301Y397D02*
X1324Y397D01*
X1335Y397D02*
X1358Y397D01*
X1401Y397D02*
X1424Y397D01*
X1435Y397D02*
X1458Y397D01*
X1501Y397D02*
X1524Y397D01*
X1535Y397D02*
X1558Y397D01*
X1601Y397D02*
X1624Y397D01*
X1635Y397D02*
X1658Y397D01*
X1701Y397D02*
X1724Y397D01*
X1735Y397D02*
X1758Y397D01*
X1801Y397D02*
X1824Y397D01*
X1835Y397D02*
X1858Y397D01*
X1901Y397D02*
X1924Y397D01*
X1935Y397D02*
X1958Y397D01*
X2001Y397D02*
X2024Y397D01*
X2035Y397D02*
X2058Y397D01*
X1301Y396D02*
X1321Y396D01*
X1338Y396D02*
X1358Y396D01*
X1401Y396D02*
X1421Y396D01*
X1438Y396D02*
X1458Y396D01*
X1501Y396D02*
X1521Y396D01*
X1538Y396D02*
X1558Y396D01*
X1601Y396D02*
X1621Y396D01*
X1638Y396D02*
X1658Y396D01*
X1701Y396D02*
X1721Y396D01*
X1738Y396D02*
X1758Y396D01*
X1801Y396D02*
X1821Y396D01*
X1838Y396D02*
X1858Y396D01*
X1901Y396D02*
X1921Y396D01*
X1938Y396D02*
X1958Y396D01*
X2001Y396D02*
X2021Y396D01*
X2038Y396D02*
X2058Y396D01*
X1301Y395D02*
X1320Y395D01*
X1340Y395D02*
X1358Y395D01*
X1401Y395D02*
X1420Y395D01*
X1440Y395D02*
X1458Y395D01*
X1501Y395D02*
X1520Y395D01*
X1540Y395D02*
X1558Y395D01*
X1601Y395D02*
X1620Y395D01*
X1640Y395D02*
X1658Y395D01*
X1701Y395D02*
X1719Y395D01*
X1740Y395D02*
X1758Y395D01*
X1801Y395D02*
X1819Y395D01*
X1840Y395D02*
X1858Y395D01*
X1901Y395D02*
X1919Y395D01*
X1940Y395D02*
X1958Y395D01*
X2001Y395D02*
X2019Y395D01*
X2040Y395D02*
X2058Y395D01*
X1301Y394D02*
X1318Y394D01*
X1342Y394D02*
X1358Y394D01*
X1401Y394D02*
X1418Y394D01*
X1441Y394D02*
X1458Y394D01*
X1501Y394D02*
X1518Y394D01*
X1541Y394D02*
X1558Y394D01*
X1601Y394D02*
X1618Y394D01*
X1641Y394D02*
X1658Y394D01*
X1701Y394D02*
X1718Y394D01*
X1741Y394D02*
X1758Y394D01*
X1801Y394D02*
X1818Y394D01*
X1841Y394D02*
X1858Y394D01*
X1901Y394D02*
X1918Y394D01*
X1941Y394D02*
X1958Y394D01*
X2001Y394D02*
X2018Y394D01*
X2041Y394D02*
X2058Y394D01*
X1301Y393D02*
X1317Y393D01*
X1343Y393D02*
X1358Y393D01*
X1401Y393D02*
X1417Y393D01*
X1443Y393D02*
X1458Y393D01*
X1501Y393D02*
X1517Y393D01*
X1543Y393D02*
X1558Y393D01*
X1601Y393D02*
X1617Y393D01*
X1643Y393D02*
X1658Y393D01*
X1701Y393D02*
X1717Y393D01*
X1743Y393D02*
X1758Y393D01*
X1801Y393D02*
X1817Y393D01*
X1843Y393D02*
X1858Y393D01*
X1901Y393D02*
X1917Y393D01*
X1943Y393D02*
X1958Y393D01*
X2001Y393D02*
X2017Y393D01*
X2042Y393D02*
X2058Y393D01*
X1301Y392D02*
X1316Y392D01*
X1344Y392D02*
X1358Y392D01*
X1401Y392D02*
X1416Y392D01*
X1444Y392D02*
X1458Y392D01*
X1501Y392D02*
X1516Y392D01*
X1544Y392D02*
X1558Y392D01*
X1601Y392D02*
X1616Y392D01*
X1644Y392D02*
X1658Y392D01*
X1701Y392D02*
X1716Y392D01*
X1744Y392D02*
X1758Y392D01*
X1801Y392D02*
X1816Y392D01*
X1844Y392D02*
X1858Y392D01*
X1901Y392D02*
X1916Y392D01*
X1944Y392D02*
X1958Y392D01*
X2001Y392D02*
X2015Y392D01*
X2044Y392D02*
X2058Y392D01*
X1301Y391D02*
X1315Y391D01*
X1345Y391D02*
X1358Y391D01*
X1401Y391D02*
X1415Y391D01*
X1445Y391D02*
X1458Y391D01*
X1501Y391D02*
X1515Y391D01*
X1545Y391D02*
X1558Y391D01*
X1601Y391D02*
X1615Y391D01*
X1645Y391D02*
X1658Y391D01*
X1701Y391D02*
X1715Y391D01*
X1745Y391D02*
X1758Y391D01*
X1801Y391D02*
X1815Y391D01*
X1845Y391D02*
X1858Y391D01*
X1901Y391D02*
X1915Y391D01*
X1945Y391D02*
X1958Y391D01*
X2001Y391D02*
X2015Y391D01*
X2044Y391D02*
X2058Y391D01*
X1301Y390D02*
X1314Y390D01*
X1346Y390D02*
X1358Y390D01*
X1401Y390D02*
X1414Y390D01*
X1445Y390D02*
X1458Y390D01*
X1501Y390D02*
X1514Y390D01*
X1545Y390D02*
X1558Y390D01*
X1601Y390D02*
X1614Y390D01*
X1645Y390D02*
X1658Y390D01*
X1701Y390D02*
X1714Y390D01*
X1745Y390D02*
X1758Y390D01*
X1801Y390D02*
X1814Y390D01*
X1845Y390D02*
X1858Y390D01*
X1901Y390D02*
X1914Y390D01*
X1945Y390D02*
X1958Y390D01*
X2001Y390D02*
X2014Y390D01*
X2045Y390D02*
X2058Y390D01*
X1301Y389D02*
X1313Y389D01*
X1346Y389D02*
X1358Y389D01*
X1401Y389D02*
X1413Y389D01*
X1446Y389D02*
X1458Y389D01*
X1501Y389D02*
X1513Y389D01*
X1546Y389D02*
X1558Y389D01*
X1601Y389D02*
X1613Y389D01*
X1646Y389D02*
X1658Y389D01*
X1701Y389D02*
X1713Y389D01*
X1746Y389D02*
X1758Y389D01*
X1801Y389D02*
X1813Y389D01*
X1846Y389D02*
X1858Y389D01*
X1901Y389D02*
X1913Y389D01*
X1946Y389D02*
X1958Y389D01*
X2001Y389D02*
X2013Y389D01*
X2046Y389D02*
X2058Y389D01*
X1301Y388D02*
X1313Y388D01*
X1347Y388D02*
X1358Y388D01*
X1401Y388D02*
X1413Y388D01*
X1447Y388D02*
X1458Y388D01*
X1501Y388D02*
X1513Y388D01*
X1547Y388D02*
X1558Y388D01*
X1601Y388D02*
X1613Y388D01*
X1647Y388D02*
X1658Y388D01*
X1701Y388D02*
X1713Y388D01*
X1747Y388D02*
X1758Y388D01*
X1801Y388D02*
X1813Y388D01*
X1847Y388D02*
X1858Y388D01*
X1901Y388D02*
X1913Y388D01*
X1947Y388D02*
X1958Y388D01*
X2001Y388D02*
X2013Y388D01*
X2047Y388D02*
X2058Y388D01*
X1301Y387D02*
X1312Y387D01*
X1347Y387D02*
X1358Y387D01*
X1401Y387D02*
X1412Y387D01*
X1447Y387D02*
X1458Y387D01*
X1501Y387D02*
X1512Y387D01*
X1547Y387D02*
X1558Y387D01*
X1601Y387D02*
X1612Y387D01*
X1647Y387D02*
X1658Y387D01*
X1701Y387D02*
X1712Y387D01*
X1747Y387D02*
X1758Y387D01*
X1801Y387D02*
X1812Y387D01*
X1847Y387D02*
X1858Y387D01*
X1901Y387D02*
X1912Y387D01*
X1947Y387D02*
X1958Y387D01*
X2001Y387D02*
X2012Y387D01*
X2047Y387D02*
X2058Y387D01*
X1301Y386D02*
X1312Y386D01*
X1348Y386D02*
X1358Y386D01*
X1401Y386D02*
X1412Y386D01*
X1448Y386D02*
X1458Y386D01*
X1501Y386D02*
X1512Y386D01*
X1548Y386D02*
X1558Y386D01*
X1601Y386D02*
X1612Y386D01*
X1648Y386D02*
X1658Y386D01*
X1701Y386D02*
X1712Y386D01*
X1748Y386D02*
X1758Y386D01*
X1801Y386D02*
X1812Y386D01*
X1848Y386D02*
X1858Y386D01*
X1901Y386D02*
X1912Y386D01*
X1948Y386D02*
X1958Y386D01*
X2001Y386D02*
X2011Y386D01*
X2048Y386D02*
X2058Y386D01*
X1301Y385D02*
X1311Y385D01*
X1348Y385D02*
X1358Y385D01*
X1401Y385D02*
X1411Y385D01*
X1448Y385D02*
X1458Y385D01*
X1501Y385D02*
X1511Y385D01*
X1548Y385D02*
X1558Y385D01*
X1601Y385D02*
X1611Y385D01*
X1648Y385D02*
X1658Y385D01*
X1701Y385D02*
X1711Y385D01*
X1748Y385D02*
X1758Y385D01*
X1801Y385D02*
X1811Y385D01*
X1848Y385D02*
X1858Y385D01*
X1901Y385D02*
X1911Y385D01*
X1948Y385D02*
X1958Y385D01*
X2001Y385D02*
X2011Y385D01*
X2048Y385D02*
X2058Y385D01*
X1301Y384D02*
X1311Y384D01*
X1349Y384D02*
X1358Y384D01*
X1401Y384D02*
X1411Y384D01*
X1448Y384D02*
X1458Y384D01*
X1501Y384D02*
X1511Y384D01*
X1548Y384D02*
X1558Y384D01*
X1601Y384D02*
X1611Y384D01*
X1648Y384D02*
X1658Y384D01*
X1701Y384D02*
X1711Y384D01*
X1748Y384D02*
X1758Y384D01*
X1801Y384D02*
X1811Y384D01*
X1848Y384D02*
X1858Y384D01*
X1901Y384D02*
X1911Y384D01*
X1948Y384D02*
X1958Y384D01*
X2001Y384D02*
X2011Y384D01*
X2048Y384D02*
X2058Y384D01*
X1301Y383D02*
X1311Y383D01*
X1349Y383D02*
X1358Y383D01*
X1401Y383D02*
X1411Y383D01*
X1449Y383D02*
X1458Y383D01*
X1501Y383D02*
X1511Y383D01*
X1549Y383D02*
X1558Y383D01*
X1601Y383D02*
X1611Y383D01*
X1649Y383D02*
X1658Y383D01*
X1701Y383D02*
X1711Y383D01*
X1749Y383D02*
X1758Y383D01*
X1801Y383D02*
X1811Y383D01*
X1849Y383D02*
X1858Y383D01*
X1901Y383D02*
X1911Y383D01*
X1949Y383D02*
X1958Y383D01*
X2001Y383D02*
X2011Y383D01*
X2049Y383D02*
X2058Y383D01*
X1301Y382D02*
X1311Y382D01*
X1349Y382D02*
X1358Y382D01*
X1401Y382D02*
X1411Y382D01*
X1449Y382D02*
X1458Y382D01*
X1501Y382D02*
X1510Y382D01*
X1549Y382D02*
X1558Y382D01*
X1601Y382D02*
X1610Y382D01*
X1649Y382D02*
X1658Y382D01*
X1701Y382D02*
X1710Y382D01*
X1749Y382D02*
X1758Y382D01*
X1801Y382D02*
X1810Y382D01*
X1849Y382D02*
X1858Y382D01*
X1901Y382D02*
X1910Y382D01*
X1949Y382D02*
X1958Y382D01*
X2001Y382D02*
X2010Y382D01*
X2049Y382D02*
X2058Y382D01*
X1301Y381D02*
X1310Y381D01*
X1349Y381D02*
X1358Y381D01*
X1401Y381D02*
X1410Y381D01*
X1449Y381D02*
X1458Y381D01*
X1501Y381D02*
X1510Y381D01*
X1549Y381D02*
X1558Y381D01*
X1601Y381D02*
X1610Y381D01*
X1649Y381D02*
X1658Y381D01*
X1701Y381D02*
X1710Y381D01*
X1749Y381D02*
X1758Y381D01*
X1801Y381D02*
X1810Y381D01*
X1849Y381D02*
X1858Y381D01*
X1901Y381D02*
X1910Y381D01*
X1949Y381D02*
X1958Y381D01*
X2001Y381D02*
X2010Y381D01*
X2049Y381D02*
X2058Y381D01*
X1301Y380D02*
X1310Y380D01*
X1349Y380D02*
X1358Y380D01*
X1401Y380D02*
X1410Y380D01*
X1449Y380D02*
X1458Y380D01*
X1501Y380D02*
X1510Y380D01*
X1549Y380D02*
X1558Y380D01*
X1601Y380D02*
X1610Y380D01*
X1649Y380D02*
X1658Y380D01*
X1701Y380D02*
X1710Y380D01*
X1749Y380D02*
X1758Y380D01*
X1801Y380D02*
X1810Y380D01*
X1849Y380D02*
X1858Y380D01*
X1901Y380D02*
X1910Y380D01*
X1949Y380D02*
X1958Y380D01*
X2001Y380D02*
X2010Y380D01*
X2049Y380D02*
X2058Y380D01*
X1301Y379D02*
X1310Y379D01*
X1349Y379D02*
X1358Y379D01*
X1401Y379D02*
X1410Y379D01*
X1449Y379D02*
X1458Y379D01*
X1501Y379D02*
X1510Y379D01*
X1549Y379D02*
X1558Y379D01*
X1601Y379D02*
X1610Y379D01*
X1649Y379D02*
X1658Y379D01*
X1701Y379D02*
X1710Y379D01*
X1749Y379D02*
X1758Y379D01*
X1801Y379D02*
X1810Y379D01*
X1849Y379D02*
X1858Y379D01*
X1901Y379D02*
X1910Y379D01*
X1949Y379D02*
X1958Y379D01*
X2001Y379D02*
X2010Y379D01*
X2049Y379D02*
X2058Y379D01*
X1301Y378D02*
X1310Y378D01*
X1349Y378D02*
X1358Y378D01*
X1401Y378D02*
X1410Y378D01*
X1449Y378D02*
X1458Y378D01*
X1501Y378D02*
X1510Y378D01*
X1549Y378D02*
X1558Y378D01*
X1601Y378D02*
X1610Y378D01*
X1649Y378D02*
X1658Y378D01*
X1701Y378D02*
X1710Y378D01*
X1749Y378D02*
X1758Y378D01*
X1801Y378D02*
X1810Y378D01*
X1849Y378D02*
X1858Y378D01*
X1901Y378D02*
X1910Y378D01*
X1949Y378D02*
X1958Y378D01*
X2001Y378D02*
X2010Y378D01*
X2049Y378D02*
X2058Y378D01*
X1301Y377D02*
X1310Y377D01*
X1349Y377D02*
X1358Y377D01*
X1401Y377D02*
X1410Y377D01*
X1449Y377D02*
X1458Y377D01*
X1501Y377D02*
X1510Y377D01*
X1549Y377D02*
X1558Y377D01*
X1601Y377D02*
X1610Y377D01*
X1649Y377D02*
X1658Y377D01*
X1701Y377D02*
X1710Y377D01*
X1749Y377D02*
X1758Y377D01*
X1801Y377D02*
X1810Y377D01*
X1849Y377D02*
X1858Y377D01*
X1901Y377D02*
X1910Y377D01*
X1949Y377D02*
X1958Y377D01*
X2001Y377D02*
X2010Y377D01*
X2049Y377D02*
X2058Y377D01*
X1301Y376D02*
X1310Y376D01*
X1349Y376D02*
X1358Y376D01*
X1401Y376D02*
X1410Y376D01*
X1449Y376D02*
X1458Y376D01*
X1501Y376D02*
X1510Y376D01*
X1549Y376D02*
X1558Y376D01*
X1601Y376D02*
X1610Y376D01*
X1649Y376D02*
X1658Y376D01*
X1701Y376D02*
X1710Y376D01*
X1749Y376D02*
X1758Y376D01*
X1801Y376D02*
X1810Y376D01*
X1849Y376D02*
X1858Y376D01*
X1901Y376D02*
X1910Y376D01*
X1949Y376D02*
X1958Y376D01*
X2001Y376D02*
X2010Y376D01*
X2049Y376D02*
X2058Y376D01*
X1301Y375D02*
X1311Y375D01*
X1349Y375D02*
X1358Y375D01*
X1401Y375D02*
X1411Y375D01*
X1449Y375D02*
X1458Y375D01*
X1501Y375D02*
X1511Y375D01*
X1549Y375D02*
X1558Y375D01*
X1601Y375D02*
X1610Y375D01*
X1649Y375D02*
X1658Y375D01*
X1701Y375D02*
X1710Y375D01*
X1749Y375D02*
X1758Y375D01*
X1801Y375D02*
X1810Y375D01*
X1849Y375D02*
X1858Y375D01*
X1901Y375D02*
X1910Y375D01*
X1949Y375D02*
X1958Y375D01*
X2001Y375D02*
X2010Y375D01*
X2049Y375D02*
X2058Y375D01*
X1301Y374D02*
X1311Y374D01*
X1349Y374D02*
X1358Y374D01*
X1401Y374D02*
X1411Y374D01*
X1449Y374D02*
X1458Y374D01*
X1501Y374D02*
X1511Y374D01*
X1549Y374D02*
X1558Y374D01*
X1601Y374D02*
X1611Y374D01*
X1649Y374D02*
X1658Y374D01*
X1701Y374D02*
X1711Y374D01*
X1749Y374D02*
X1758Y374D01*
X1801Y374D02*
X1811Y374D01*
X1849Y374D02*
X1858Y374D01*
X1901Y374D02*
X1911Y374D01*
X1949Y374D02*
X1958Y374D01*
X2001Y374D02*
X2011Y374D01*
X2049Y374D02*
X2058Y374D01*
X1301Y373D02*
X1311Y373D01*
X1348Y373D02*
X1358Y373D01*
X1401Y373D02*
X1411Y373D01*
X1448Y373D02*
X1458Y373D01*
X1501Y373D02*
X1511Y373D01*
X1548Y373D02*
X1558Y373D01*
X1601Y373D02*
X1611Y373D01*
X1648Y373D02*
X1658Y373D01*
X1701Y373D02*
X1711Y373D01*
X1748Y373D02*
X1758Y373D01*
X1801Y373D02*
X1811Y373D01*
X1848Y373D02*
X1858Y373D01*
X1901Y373D02*
X1911Y373D01*
X1948Y373D02*
X1958Y373D01*
X2001Y373D02*
X2011Y373D01*
X2048Y373D02*
X2058Y373D01*
X1301Y372D02*
X1311Y372D01*
X1348Y372D02*
X1358Y372D01*
X1401Y372D02*
X1411Y372D01*
X1448Y372D02*
X1458Y372D01*
X1501Y372D02*
X1511Y372D01*
X1548Y372D02*
X1558Y372D01*
X1601Y372D02*
X1611Y372D01*
X1648Y372D02*
X1658Y372D01*
X1701Y372D02*
X1711Y372D01*
X1748Y372D02*
X1758Y372D01*
X1801Y372D02*
X1811Y372D01*
X1848Y372D02*
X1858Y372D01*
X1901Y372D02*
X1911Y372D01*
X1948Y372D02*
X1958Y372D01*
X2001Y372D02*
X2011Y372D01*
X2048Y372D02*
X2058Y372D01*
X1301Y371D02*
X1312Y371D01*
X1348Y371D02*
X1358Y371D01*
X1401Y371D02*
X1412Y371D01*
X1448Y371D02*
X1458Y371D01*
X1501Y371D02*
X1512Y371D01*
X1548Y371D02*
X1558Y371D01*
X1601Y371D02*
X1612Y371D01*
X1648Y371D02*
X1658Y371D01*
X1701Y371D02*
X1712Y371D01*
X1748Y371D02*
X1758Y371D01*
X1801Y371D02*
X1812Y371D01*
X1848Y371D02*
X1858Y371D01*
X1901Y371D02*
X1912Y371D01*
X1948Y371D02*
X1958Y371D01*
X2001Y371D02*
X2012Y371D01*
X2048Y371D02*
X2058Y371D01*
X1301Y370D02*
X1312Y370D01*
X1347Y370D02*
X1358Y370D01*
X1401Y370D02*
X1412Y370D01*
X1447Y370D02*
X1458Y370D01*
X1501Y370D02*
X1512Y370D01*
X1547Y370D02*
X1558Y370D01*
X1601Y370D02*
X1612Y370D01*
X1647Y370D02*
X1658Y370D01*
X1701Y370D02*
X1712Y370D01*
X1747Y370D02*
X1758Y370D01*
X1801Y370D02*
X1812Y370D01*
X1847Y370D02*
X1858Y370D01*
X1901Y370D02*
X1912Y370D01*
X1947Y370D02*
X1958Y370D01*
X2001Y370D02*
X2012Y370D01*
X2047Y370D02*
X2058Y370D01*
X1301Y369D02*
X1313Y369D01*
X1347Y369D02*
X1358Y369D01*
X1401Y369D02*
X1413Y369D01*
X1447Y369D02*
X1458Y369D01*
X1501Y369D02*
X1513Y369D01*
X1547Y369D02*
X1558Y369D01*
X1601Y369D02*
X1613Y369D01*
X1647Y369D02*
X1658Y369D01*
X1701Y369D02*
X1713Y369D01*
X1747Y369D02*
X1758Y369D01*
X1801Y369D02*
X1813Y369D01*
X1847Y369D02*
X1858Y369D01*
X1901Y369D02*
X1913Y369D01*
X1946Y369D02*
X1958Y369D01*
X2001Y369D02*
X2013Y369D01*
X2046Y369D02*
X2058Y369D01*
X1301Y368D02*
X1313Y368D01*
X1346Y368D02*
X1358Y368D01*
X1401Y368D02*
X1413Y368D01*
X1446Y368D02*
X1458Y368D01*
X1501Y368D02*
X1513Y368D01*
X1546Y368D02*
X1558Y368D01*
X1601Y368D02*
X1613Y368D01*
X1646Y368D02*
X1658Y368D01*
X1701Y368D02*
X1713Y368D01*
X1746Y368D02*
X1758Y368D01*
X1801Y368D02*
X1813Y368D01*
X1846Y368D02*
X1858Y368D01*
X1901Y368D02*
X1913Y368D01*
X1946Y368D02*
X1958Y368D01*
X2001Y368D02*
X2013Y368D01*
X2046Y368D02*
X2058Y368D01*
X1301Y367D02*
X1314Y367D01*
X1345Y367D02*
X1358Y367D01*
X1401Y367D02*
X1414Y367D01*
X1445Y367D02*
X1458Y367D01*
X1501Y367D02*
X1514Y367D01*
X1545Y367D02*
X1558Y367D01*
X1601Y367D02*
X1614Y367D01*
X1645Y367D02*
X1658Y367D01*
X1701Y367D02*
X1714Y367D01*
X1745Y367D02*
X1758Y367D01*
X1801Y367D02*
X1814Y367D01*
X1845Y367D02*
X1858Y367D01*
X1901Y367D02*
X1914Y367D01*
X1945Y367D02*
X1958Y367D01*
X2001Y367D02*
X2014Y367D01*
X2045Y367D02*
X2058Y367D01*
X1301Y366D02*
X1315Y366D01*
X1344Y366D02*
X1358Y366D01*
X1401Y366D02*
X1415Y366D01*
X1444Y366D02*
X1458Y366D01*
X1501Y366D02*
X1515Y366D01*
X1544Y366D02*
X1558Y366D01*
X1601Y366D02*
X1615Y366D01*
X1644Y366D02*
X1658Y366D01*
X1701Y366D02*
X1715Y366D01*
X1744Y366D02*
X1758Y366D01*
X1801Y366D02*
X1815Y366D01*
X1844Y366D02*
X1858Y366D01*
X1901Y366D02*
X1915Y366D01*
X1944Y366D02*
X1958Y366D01*
X2001Y366D02*
X2015Y366D01*
X2044Y366D02*
X2058Y366D01*
X1301Y365D02*
X1316Y365D01*
X1344Y365D02*
X1358Y365D01*
X1401Y365D02*
X1416Y365D01*
X1444Y365D02*
X1458Y365D01*
X1501Y365D02*
X1516Y365D01*
X1544Y365D02*
X1558Y365D01*
X1601Y365D02*
X1616Y365D01*
X1644Y365D02*
X1658Y365D01*
X1701Y365D02*
X1716Y365D01*
X1743Y365D02*
X1758Y365D01*
X1801Y365D02*
X1816Y365D01*
X1843Y365D02*
X1858Y365D01*
X1901Y365D02*
X1916Y365D01*
X1943Y365D02*
X1958Y365D01*
X2001Y365D02*
X2016Y365D01*
X2043Y365D02*
X2058Y365D01*
X1301Y364D02*
X1317Y364D01*
X1342Y364D02*
X1358Y364D01*
X1401Y364D02*
X1417Y364D01*
X1442Y364D02*
X1458Y364D01*
X1501Y364D02*
X1517Y364D01*
X1542Y364D02*
X1558Y364D01*
X1601Y364D02*
X1617Y364D01*
X1642Y364D02*
X1658Y364D01*
X1701Y364D02*
X1717Y364D01*
X1742Y364D02*
X1758Y364D01*
X1801Y364D02*
X1817Y364D01*
X1842Y364D02*
X1858Y364D01*
X1901Y364D02*
X1917Y364D01*
X1942Y364D02*
X1958Y364D01*
X2001Y364D02*
X2017Y364D01*
X2042Y364D02*
X2058Y364D01*
X1301Y363D02*
X1318Y363D01*
X1341Y363D02*
X1358Y363D01*
X1401Y363D02*
X1418Y363D01*
X1441Y363D02*
X1458Y363D01*
X1501Y363D02*
X1518Y363D01*
X1541Y363D02*
X1558Y363D01*
X1601Y363D02*
X1618Y363D01*
X1641Y363D02*
X1658Y363D01*
X1701Y363D02*
X1718Y363D01*
X1741Y363D02*
X1758Y363D01*
X1801Y363D02*
X1818Y363D01*
X1841Y363D02*
X1858Y363D01*
X1901Y363D02*
X1918Y363D01*
X1941Y363D02*
X1958Y363D01*
X2001Y363D02*
X2018Y363D01*
X2041Y363D02*
X2058Y363D01*
X1301Y362D02*
X1320Y362D01*
X1339Y362D02*
X1358Y362D01*
X1401Y362D02*
X1420Y362D01*
X1439Y362D02*
X1458Y362D01*
X1501Y362D02*
X1520Y362D01*
X1539Y362D02*
X1558Y362D01*
X1601Y362D02*
X1620Y362D01*
X1639Y362D02*
X1658Y362D01*
X1701Y362D02*
X1720Y362D01*
X1739Y362D02*
X1758Y362D01*
X1801Y362D02*
X1820Y362D01*
X1839Y362D02*
X1858Y362D01*
X1901Y362D02*
X1920Y362D01*
X1939Y362D02*
X1958Y362D01*
X2001Y362D02*
X2020Y362D01*
X2039Y362D02*
X2058Y362D01*
X1301Y361D02*
X1322Y361D01*
X1338Y361D02*
X1358Y361D01*
X1401Y361D02*
X1422Y361D01*
X1438Y361D02*
X1458Y361D01*
X1501Y361D02*
X1522Y361D01*
X1537Y361D02*
X1558Y361D01*
X1601Y361D02*
X1622Y361D01*
X1637Y361D02*
X1658Y361D01*
X1701Y361D02*
X1722Y361D01*
X1737Y361D02*
X1758Y361D01*
X1801Y361D02*
X1822Y361D01*
X1837Y361D02*
X1858Y361D01*
X1901Y361D02*
X1922Y361D01*
X1937Y361D02*
X1958Y361D01*
X2001Y361D02*
X2022Y361D01*
X2037Y361D02*
X2058Y361D01*
X1301Y360D02*
X1325Y360D01*
X1334Y360D02*
X1358Y360D01*
X1401Y360D02*
X1425Y360D01*
X1434Y360D02*
X1458Y360D01*
X1501Y360D02*
X1525Y360D01*
X1534Y360D02*
X1558Y360D01*
X1601Y360D02*
X1625Y360D01*
X1634Y360D02*
X1658Y360D01*
X1701Y360D02*
X1725Y360D01*
X1734Y360D02*
X1758Y360D01*
X1801Y360D02*
X1825Y360D01*
X1834Y360D02*
X1858Y360D01*
X1901Y360D02*
X1925Y360D01*
X1934Y360D02*
X1958Y360D01*
X2001Y360D02*
X2025Y360D01*
X2034Y360D02*
X2058Y360D01*
X1301Y359D02*
X1358Y359D01*
X1401Y359D02*
X1458Y359D01*
X1501Y359D02*
X1558Y359D01*
X1601Y359D02*
X1658Y359D01*
X1701Y359D02*
X1758Y359D01*
X1801Y359D02*
X1858Y359D01*
X1901Y359D02*
X1958Y359D01*
X2001Y359D02*
X2058Y359D01*
X1301Y358D02*
X1358Y358D01*
X1401Y358D02*
X1458Y358D01*
X1501Y358D02*
X1558Y358D01*
X1601Y358D02*
X1658Y358D01*
X1701Y358D02*
X1758Y358D01*
X1801Y358D02*
X1858Y358D01*
X1901Y358D02*
X1958Y358D01*
X2001Y358D02*
X2058Y358D01*
X1301Y357D02*
X1358Y357D01*
X1401Y357D02*
X1458Y357D01*
X1501Y357D02*
X1558Y357D01*
X1601Y357D02*
X1658Y357D01*
X1701Y357D02*
X1758Y357D01*
X1801Y357D02*
X1858Y357D01*
X1901Y357D02*
X1958Y357D01*
X2001Y357D02*
X2058Y357D01*
X1301Y356D02*
X1358Y356D01*
X1401Y356D02*
X1458Y356D01*
X1501Y356D02*
X1558Y356D01*
X1601Y356D02*
X1658Y356D01*
X1701Y356D02*
X1758Y356D01*
X1801Y356D02*
X1858Y356D01*
X1901Y356D02*
X1958Y356D01*
X2001Y356D02*
X2058Y356D01*
X1301Y355D02*
X1358Y355D01*
X1401Y355D02*
X1458Y355D01*
X1501Y355D02*
X1558Y355D01*
X1601Y355D02*
X1658Y355D01*
X1701Y355D02*
X1758Y355D01*
X1801Y355D02*
X1858Y355D01*
X1901Y355D02*
X1958Y355D01*
X2001Y355D02*
X2058Y355D01*
X1301Y354D02*
X1358Y354D01*
X1401Y354D02*
X1458Y354D01*
X1501Y354D02*
X1558Y354D01*
X1601Y354D02*
X1658Y354D01*
X1701Y354D02*
X1758Y354D01*
X1801Y354D02*
X1858Y354D01*
X1901Y354D02*
X1958Y354D01*
X2001Y354D02*
X2058Y354D01*
X1301Y353D02*
X1358Y353D01*
X1401Y353D02*
X1458Y353D01*
X1501Y353D02*
X1558Y353D01*
X1601Y353D02*
X1658Y353D01*
X1701Y353D02*
X1758Y353D01*
X1801Y353D02*
X1858Y353D01*
X1901Y353D02*
X1958Y353D01*
X2001Y353D02*
X2058Y353D01*
X1301Y352D02*
X1358Y352D01*
X1401Y352D02*
X1458Y352D01*
X1501Y352D02*
X1558Y352D01*
X1601Y352D02*
X1658Y352D01*
X1701Y352D02*
X1758Y352D01*
X1801Y352D02*
X1858Y352D01*
X1901Y352D02*
X1958Y352D01*
X2001Y352D02*
X2058Y352D01*
X1301Y351D02*
X1358Y351D01*
X1401Y351D02*
X1458Y351D01*
X1501Y351D02*
X1558Y351D01*
X1601Y351D02*
X1658Y351D01*
X1701Y351D02*
X1758Y351D01*
X1801Y351D02*
X1858Y351D01*
X1901Y351D02*
X1958Y351D01*
X2001Y351D02*
X2058Y351D01*
X1301Y350D02*
X1358Y350D01*
X1401Y350D02*
X1458Y350D01*
X1501Y350D02*
X1558Y350D01*
X1601Y350D02*
X1658Y350D01*
X1701Y350D02*
X1758Y350D01*
X1801Y350D02*
X1858Y350D01*
X1901Y350D02*
X1958Y350D01*
X2001Y350D02*
X2058Y350D01*
X1301Y349D02*
X1358Y349D01*
X1401Y349D02*
X1458Y349D01*
X1501Y349D02*
X1558Y349D01*
X1601Y349D02*
X1658Y349D01*
X1701Y349D02*
X1758Y349D01*
X1801Y349D02*
X1858Y349D01*
X1901Y349D02*
X1958Y349D01*
X2001Y349D02*
X2058Y349D01*
X1301Y348D02*
X1358Y348D01*
X1401Y348D02*
X1458Y348D01*
X1501Y348D02*
X1558Y348D01*
X1601Y348D02*
X1658Y348D01*
X1701Y348D02*
X1758Y348D01*
X1801Y348D02*
X1858Y348D01*
X1901Y348D02*
X1958Y348D01*
X2001Y348D02*
X2058Y348D01*
X1301Y347D02*
X1358Y347D01*
X1401Y347D02*
X1458Y347D01*
X1501Y347D02*
X1558Y347D01*
X1601Y347D02*
X1658Y347D01*
X1701Y347D02*
X1758Y347D01*
X1801Y347D02*
X1858Y347D01*
X1901Y347D02*
X1958Y347D01*
X2001Y347D02*
X2058Y347D01*
X1301Y346D02*
X1358Y346D01*
X1401Y346D02*
X1458Y346D01*
X1501Y346D02*
X1558Y346D01*
X1601Y346D02*
X1658Y346D01*
X1701Y346D02*
X1758Y346D01*
X1801Y346D02*
X1858Y346D01*
X1901Y346D02*
X1958Y346D01*
X2001Y346D02*
X2058Y346D01*
X1302Y345D02*
X1358Y345D01*
X1402Y345D02*
X1458Y345D01*
X1502Y345D02*
X1558Y345D01*
X1601Y345D02*
X1658Y345D01*
X1701Y345D02*
X1758Y345D01*
X1801Y345D02*
X1858Y345D01*
X1901Y345D02*
X1958Y345D01*
X2001Y345D02*
X2058Y345D01*
X1302Y344D02*
X1358Y344D01*
X1402Y344D02*
X1458Y344D01*
X1502Y344D02*
X1558Y344D01*
X1602Y344D02*
X1658Y344D01*
X1702Y344D02*
X1758Y344D01*
X1802Y344D02*
X1858Y344D01*
X1902Y344D02*
X1958Y344D01*
X2002Y344D02*
X2058Y344D01*
X1302Y343D02*
X1358Y343D01*
X1402Y343D02*
X1458Y343D01*
X1502Y343D02*
X1558Y343D01*
X1602Y343D02*
X1658Y343D01*
X1702Y343D02*
X1757Y343D01*
X1802Y343D02*
X1857Y343D01*
X1902Y343D02*
X1957Y343D01*
X2002Y343D02*
X2057Y343D01*
X1302Y342D02*
X1357Y342D01*
X1402Y342D02*
X1457Y342D01*
X1502Y342D02*
X1557Y342D01*
X1602Y342D02*
X1657Y342D01*
X1702Y342D02*
X1757Y342D01*
X1802Y342D02*
X1857Y342D01*
X1902Y342D02*
X1957Y342D01*
X2002Y342D02*
X2057Y342D01*
X1302Y341D02*
X1357Y341D01*
X1402Y341D02*
X1457Y341D01*
X1502Y341D02*
X1557Y341D01*
X1602Y341D02*
X1657Y341D01*
X1702Y341D02*
X1757Y341D01*
X1802Y341D02*
X1857Y341D01*
X1902Y341D02*
X1957Y341D01*
X2002Y341D02*
X2057Y341D01*
X1303Y340D02*
X1357Y340D01*
X1403Y340D02*
X1457Y340D01*
X1503Y340D02*
X1557Y340D01*
X1603Y340D02*
X1657Y340D01*
X1703Y340D02*
X1757Y340D01*
X1803Y340D02*
X1857Y340D01*
X1903Y340D02*
X1957Y340D01*
X2003Y340D02*
X2057Y340D01*
X1303Y339D02*
X1356Y339D01*
X1403Y339D02*
X1456Y339D01*
X1503Y339D02*
X1556Y339D01*
X1603Y339D02*
X1656Y339D01*
X1703Y339D02*
X1756Y339D01*
X1803Y339D02*
X1856Y339D01*
X1903Y339D02*
X1956Y339D01*
X2003Y339D02*
X2056Y339D01*
X1304Y338D02*
X1356Y338D01*
X1404Y338D02*
X1456Y338D01*
X1504Y338D02*
X1556Y338D01*
X1603Y338D02*
X1656Y338D01*
X1703Y338D02*
X1756Y338D01*
X1803Y338D02*
X1856Y338D01*
X1903Y338D02*
X1956Y338D01*
X2003Y338D02*
X2056Y338D01*
X1304Y337D02*
X1355Y337D01*
X1404Y337D02*
X1455Y337D01*
X1504Y337D02*
X1555Y337D01*
X1604Y337D02*
X1655Y337D01*
X1704Y337D02*
X1755Y337D01*
X1804Y337D02*
X1855Y337D01*
X1904Y337D02*
X1955Y337D01*
X2004Y337D02*
X2055Y337D01*
X1305Y336D02*
X1355Y336D01*
X1405Y336D02*
X1455Y336D01*
X1504Y336D02*
X1555Y336D01*
X1604Y336D02*
X1655Y336D01*
X1704Y336D02*
X1755Y336D01*
X1804Y336D02*
X1855Y336D01*
X1904Y336D02*
X1955Y336D01*
X2004Y336D02*
X2055Y336D01*
X1305Y335D02*
X1354Y335D01*
X1405Y335D02*
X1454Y335D01*
X1505Y335D02*
X1554Y335D01*
X1605Y335D02*
X1654Y335D01*
X1705Y335D02*
X1754Y335D01*
X1805Y335D02*
X1854Y335D01*
X1905Y335D02*
X1954Y335D01*
X2005Y335D02*
X2054Y335D01*
X1306Y334D02*
X1354Y334D01*
X1406Y334D02*
X1454Y334D01*
X1506Y334D02*
X1554Y334D01*
X1606Y334D02*
X1654Y334D01*
X1706Y334D02*
X1754Y334D01*
X1806Y334D02*
X1854Y334D01*
X1906Y334D02*
X1954Y334D01*
X2006Y334D02*
X2054Y334D01*
X1306Y333D02*
X1353Y333D01*
X1406Y333D02*
X1453Y333D01*
X1506Y333D02*
X1553Y333D01*
X1606Y333D02*
X1653Y333D01*
X1706Y333D02*
X1753Y333D01*
X1806Y333D02*
X1853Y333D01*
X1906Y333D02*
X1953Y333D01*
X2006Y333D02*
X2053Y333D01*
X1307Y332D02*
X1352Y332D01*
X1407Y332D02*
X1452Y332D01*
X1507Y332D02*
X1552Y332D01*
X1607Y332D02*
X1652Y332D01*
X1707Y332D02*
X1752Y332D01*
X1807Y332D02*
X1852Y332D01*
X1907Y332D02*
X1952Y332D01*
X2007Y332D02*
X2052Y332D01*
X1308Y331D02*
X1352Y331D01*
X1408Y331D02*
X1452Y331D01*
X1508Y331D02*
X1552Y331D01*
X1608Y331D02*
X1652Y331D01*
X1708Y331D02*
X1752Y331D01*
X1808Y331D02*
X1852Y331D01*
X1908Y331D02*
X1952Y331D01*
X2008Y331D02*
X2051Y331D01*
X1309Y330D02*
X1351Y330D01*
X1409Y330D02*
X1451Y330D01*
X1509Y330D02*
X1551Y330D01*
X1609Y330D02*
X1651Y330D01*
X1709Y330D02*
X1751Y330D01*
X1809Y330D02*
X1851Y330D01*
X1909Y330D02*
X1951Y330D01*
X2009Y330D02*
X2051Y330D01*
X1310Y329D02*
X1350Y329D01*
X1410Y329D02*
X1450Y329D01*
X1510Y329D02*
X1550Y329D01*
X1610Y329D02*
X1650Y329D01*
X1710Y329D02*
X1750Y329D01*
X1810Y329D02*
X1850Y329D01*
X1910Y329D02*
X1950Y329D01*
X2009Y329D02*
X2050Y329D01*
X1311Y328D02*
X1349Y328D01*
X1411Y328D02*
X1449Y328D01*
X1511Y328D02*
X1549Y328D01*
X1611Y328D02*
X1649Y328D01*
X1711Y328D02*
X1749Y328D01*
X1811Y328D02*
X1849Y328D01*
X1911Y328D02*
X1949Y328D01*
X2011Y328D02*
X2049Y328D01*
X1312Y327D02*
X1348Y327D01*
X1412Y327D02*
X1448Y327D01*
X1512Y327D02*
X1548Y327D01*
X1612Y327D02*
X1648Y327D01*
X1712Y327D02*
X1748Y327D01*
X1812Y327D02*
X1847Y327D01*
X1912Y327D02*
X1947Y327D01*
X2012Y327D02*
X2047Y327D01*
X1313Y326D02*
X1346Y326D01*
X1413Y326D02*
X1446Y326D01*
X1513Y326D02*
X1546Y326D01*
X1613Y326D02*
X1646Y326D01*
X1713Y326D02*
X1746Y326D01*
X1813Y326D02*
X1846Y326D01*
X1913Y326D02*
X1946Y326D01*
X2013Y326D02*
X2046Y326D01*
X1315Y325D02*
X1345Y325D01*
X1415Y325D02*
X1445Y325D01*
X1515Y325D02*
X1545Y325D01*
X1615Y325D02*
X1645Y325D01*
X1715Y325D02*
X1745Y325D01*
X1815Y325D02*
X1845Y325D01*
X1915Y325D02*
X1945Y325D01*
X2014Y325D02*
X2045Y325D01*
X1316Y324D02*
X1343Y324D01*
X1416Y324D02*
X1443Y324D01*
X1516Y324D02*
X1543Y324D01*
X1616Y324D02*
X1643Y324D01*
X1716Y324D02*
X1743Y324D01*
X1816Y324D02*
X1843Y324D01*
X1916Y324D02*
X1943Y324D01*
X2016Y324D02*
X2043Y324D01*
X1318Y323D02*
X1341Y323D01*
X1418Y323D02*
X1441Y323D01*
X1518Y323D02*
X1541Y323D01*
X1618Y323D02*
X1641Y323D01*
X1718Y323D02*
X1741Y323D01*
X1818Y323D02*
X1841Y323D01*
X1918Y323D02*
X1941Y323D01*
X2018Y323D02*
X2041Y323D01*
X1321Y322D02*
X1339Y322D01*
X1421Y322D02*
X1439Y322D01*
X1521Y322D02*
X1539Y322D01*
X1621Y322D02*
X1638Y322D01*
X1721Y322D02*
X1738Y322D01*
X1821Y322D02*
X1838Y322D01*
X1921Y322D02*
X1938Y322D01*
X2021Y322D02*
X2038Y322D01*
X1325Y321D02*
X1335Y321D01*
X1425Y321D02*
X1435Y321D01*
X1525Y321D02*
X1535Y321D01*
X1625Y321D02*
X1635Y321D01*
X1725Y321D02*
X1735Y321D01*
X1825Y321D02*
X1835Y321D01*
X1925Y321D02*
X1935Y321D01*
X2025Y321D02*
X2035Y321D01*
D02*
G04 End of Copper1*
M02*